<svg xmlns="http://www.w3.org/2000/svg" viewBox="0 0 1200 650" width="1200" height="650">
  <defs>
    <style>
      text { font-family: Arial, Helvetica, sans-serif; }
      .title { font-size: 16px; font-weight: bold; fill: #1B3A5C; }
      .subtitle { font-size: 11px; fill: #555; font-style: italic; }
      .label { font-size: 9px; fill: #333; }
      .label-bold { font-size: 9px; fill: #1B3A5C; font-weight: bold; }
      .label-white { font-size: 9px; fill: #fff; font-weight: bold; }
      .dim { font-size: 8px; fill: #C0392B; }
      .dim-line { stroke: #C0392B; stroke-width: 0.7; }
      .note { font-size: 7.5px; fill: #666; }
      .zone-letter { font-size: 28px; font-weight: bold; fill: rgba(255,255,255,0.25); }
      .equip { font-size: 7px; fill: #333; }
      .equip-bold { font-size: 7px; fill: #1B3A5C; font-weight: bold; }
    </style>
    <pattern id="aisle-hatch" patternUnits="userSpaceOnUse" width="6" height="6">
      <rect width="6" height="6" fill="#E8F6F3"/>
      <line x1="0" y1="6" x2="6" y2="0" stroke="#1ABC9C" stroke-width="0.3" opacity="0.5"/>
    </pattern>
  </defs>

  <!-- Background -->
  <rect width="1200" height="650" fill="#FAFCFF"/>

  <!-- Title -->
  <text x="600" y="28" text-anchor="middle" class="title">AEGIS-CLASS ROVER — COMMAND MODULE CABIN PLAN VIEW</text>
  <text x="600" y="44" text-anchor="middle" class="subtitle">Top-Down / Roof Removed — 3.4 m × 8.0 m Interior — Not to Scale</text>

  <!-- Orientation arrows -->
  <text x="95" y="340" text-anchor="middle" class="label-bold" font-size="10">← FWD</text>
  <text x="1105" y="340" text-anchor="middle" class="label-bold" font-size="10">AFT →</text>

  <!-- PORT / STARBOARD labels -->
  <text x="600" y="78" text-anchor="middle" class="label" fill="#888" font-size="9">PORT (LEFT)</text>
  <text x="600" y="610" text-anchor="middle" class="label" fill="#888" font-size="9">STARBOARD (RIGHT)</text>

  <!-- ============================================ -->
  <!-- HULL OUTLINE -->
  <!-- ============================================ -->
  <!-- Outer hull with rounded fore end -->
  <path d="M160,110 Q120,110 120,160 L120,520 Q120,570 160,570 L1060,570 Q1080,570 1080,545 L1080,135 Q1080,110 1060,110 Z" 
        fill="none" stroke="#1B3A5C" stroke-width="3"/>
  <!-- Inner cabin boundary -->
  <path d="M172,122 Q134,122 134,168 L134,512 Q134,558 172,558 L1048,558 Q1066,558 1066,537 L1066,143 Q1066,122 1048,122 Z" 
        fill="#fff" stroke="#1B3A5C" stroke-width="1" stroke-dasharray="4,2"/>
  
  <!-- Wall thickness indication -->
  <text x="148" y="340" text-anchor="middle" class="note" fill="#1B3A5C" writing-mode="tb" font-size="6" transform="rotate(-90,148,340)">WALL ~100mm</text>

  <!-- ============================================ -->
  <!-- ZONE BACKGROUNDS -->
  <!-- ============================================ -->
  <!-- Zone A: Forward Command (1.6m = ~192px at scale) -->
  <rect x="134" y="122" width="192" height="436" rx="5" fill="#2E86C1" opacity="0.12"/>
  <text x="230" y="350" text-anchor="middle" class="zone-letter">A</text>

  <!-- Zone B: Central Workspace (2.4m = ~288px) -->
  <rect x="326" y="122" width="288" height="436" fill="#27AE60" opacity="0.08"/>
  <text x="470" y="350" text-anchor="middle" class="zone-letter">B</text>

  <!-- Zone C: Crew Quarters (2.2m = ~264px) -->
  <rect x="614" y="122" width="264" height="436" fill="#8E44AD" opacity="0.08"/>
  <text x="746" y="350" text-anchor="middle" class="zone-letter">C</text>

  <!-- Zone D: Systems Bay (1.2m = ~144px) -->
  <rect x="878" y="122" width="116" height="436" fill="#D4AC0D" opacity="0.10"/>
  <text x="936" y="350" text-anchor="middle" class="zone-letter">D</text>

  <!-- Zone E: Airlock Vestibule (0.6m = ~72px) -->
  <rect x="994" y="122" width="72" height="436" fill="#E74C3C" opacity="0.10"/>
  <text x="1030" y="350" text-anchor="middle" class="zone-letter">E</text>

  <!-- Zone divider lines -->
  <line x1="326" y1="115" x2="326" y2="565" stroke="#999" stroke-width="0.5" stroke-dasharray="5,3"/>
  <line x1="614" y1="115" x2="614" y2="565" stroke="#999" stroke-width="0.5" stroke-dasharray="5,3"/>
  <line x1="878" y1="115" x2="878" y2="565" stroke="#999" stroke-width="0.5" stroke-dasharray="5,3"/>
  <line x1="994" y1="115" x2="994" y2="565" stroke="#999" stroke-width="0.5" stroke-dasharray="5,3"/>

  <!-- Zone labels (top) -->
  <rect x="170" y="86" width="120" height="18" rx="3" fill="#2E86C1" opacity="0.8"/>
  <text x="230" y="99" text-anchor="middle" class="label-white">ZONE A: COMMAND</text>

  <rect x="410" y="86" width="120" height="18" rx="3" fill="#27AE60" opacity="0.8"/>
  <text x="470" y="99" text-anchor="middle" class="label-white">ZONE B: WORKSPACE</text>

  <rect x="686" y="86" width="120" height="18" rx="3" fill="#8E44AD" opacity="0.8"/>
  <text x="746" y="99" text-anchor="middle" class="label-white">ZONE C: QUARTERS</text>

  <rect x="886" y="86" width="90" height="18" rx="3" fill="#D4AC0D" opacity="0.8"/>
  <text x="931" y="99" text-anchor="middle" class="label-white" font-size="8">ZONE D: SYSTEMS</text>

  <rect x="1000" y="86" width="60" height="18" rx="3" fill="#E74C3C" opacity="0.8"/>
  <text x="1030" y="99" text-anchor="middle" class="label-white" font-size="7">ZONE E</text>

  <!-- ============================================ -->
  <!-- AISLE (port side, full length) -->
  <!-- ============================================ -->
  <rect x="134" y="122" width="90" height="436" fill="url(#aisle-hatch)" opacity="0.6"/>
  <text x="179" y="138" text-anchor="middle" class="equip-bold" fill="#1ABC9C">AISLE (0.75m min)</text>
  <!-- Aisle arrow -->
  <line x1="179" y1="150" x2="179" y2="540" stroke="#1ABC9C" stroke-width="1" stroke-dasharray="8,4" opacity="0.5"/>
  <polygon points="179,545 174,535 184,535" fill="#1ABC9C" opacity="0.5"/>

  <!-- ============================================ -->
  <!-- ZONE A EQUIPMENT -->
  <!-- ============================================ -->
  <!-- Forward windows -->
  <rect x="138" y="210" width="6" height="60" rx="2" fill="#85C1E9" stroke="#2E86C1" stroke-width="1"/>
  <text x="130" y="244" text-anchor="end" class="note" fill="#2E86C1" font-size="6">WINDOW</text>
  <rect x="138" y="400" width="6" height="60" rx="2" fill="#85C1E9" stroke="#2E86C1" stroke-width="1"/>
  <text x="130" y="434" text-anchor="end" class="note" fill="#2E86C1" font-size="6">WINDOW</text>

  <!-- Pilot seat (port) -->
  <rect x="210" y="190" width="55" height="75" rx="8" fill="#D5D8DC" stroke="#808B96" stroke-width="1.5"/>
  <rect x="220" y="198" width="35" height="45" rx="5" fill="#AAB7C4" stroke="#808B96" stroke-width="0.7"/>
  <text x="237" y="260" text-anchor="middle" class="equip-bold">PILOT</text>
  <text x="237" y="268" text-anchor="middle" class="equip">SEAT</text>

  <!-- Co-pilot seat (starboard) -->
  <rect x="210" y="415" width="55" height="75" rx="8" fill="#D5D8DC" stroke="#808B96" stroke-width="1.5"/>
  <rect x="220" y="423" width="35" height="45" rx="5" fill="#AAB7C4" stroke="#808B96" stroke-width="0.7"/>
  <text x="237" y="485" text-anchor="middle" class="equip-bold">CO-PILOT</text>
  <text x="237" y="493" text-anchor="middle" class="equip">SEAT</text>

  <!-- Instrument panel -->
  <rect x="148" y="290" width="14" height="100" rx="2" fill="#4A4A4A" stroke="#333" stroke-width="1"/>
  <text x="155" y="345" text-anchor="middle" class="note" fill="#CCC" font-size="5" writing-mode="tb" transform="rotate(-90,155,345)">DISPLAYS</text>

  <!-- Overhead panel note -->
  <text x="280" y="350" text-anchor="middle" class="equip" fill="#888" font-size="6">OVERHEAD:</text>
  <text x="280" y="358" text-anchor="middle" class="equip" fill="#888" font-size="6">COMM / AUTON</text>

  <!-- ============================================ -->
  <!-- ZONE B EQUIPMENT -->
  <!-- ============================================ -->
  <!-- Communication station (port, forward) -->
  <rect x="336" y="135" width="70" height="55" rx="3" fill="#D6EAF8" stroke="#2E86C1" stroke-width="1"/>
  <text x="371" y="160" text-anchor="middle" class="equip-bold">COMM</text>
  <text x="371" y="168" text-anchor="middle" class="equip">STATION</text>
  <text x="371" y="178" text-anchor="middle" class="equip" fill="#888">14" display</text>

  <!-- Tool storage (port wall, center) -->
  <rect x="336" y="200" width="120" height="35" rx="2" fill="#F0E68C" stroke="#D4AC0D" stroke-width="1"/>
  <text x="396" y="218" text-anchor="middle" class="equip-bold">TOOL STORAGE (2.0m × 0.6m)</text>
  <text x="396" y="228" text-anchor="middle" class="equip" fill="#888">slotted rail system</text>

  <!-- Maintenance bench (port, fold-out) -->
  <rect x="345" y="240" width="95" height="40" rx="2" fill="#FDEBD0" stroke="#D4AC0D" stroke-width="0.7" stroke-dasharray="3,2"/>
  <text x="392" y="258" text-anchor="middle" class="equip">MAINT BENCH</text>
  <text x="392" y="268" text-anchor="middle" class="equip" fill="#888">(fold-out)</text>

  <!-- Science bench + glove box (port) -->
  <rect x="465" y="200" width="80" height="55" rx="2" fill="#D5F5E3" stroke="#27AE60" stroke-width="1"/>
  <text x="505" y="222" text-anchor="middle" class="equip-bold">SCIENCE</text>
  <text x="505" y="232" text-anchor="middle" class="equip">BENCH</text>
  <text x="505" y="242" text-anchor="middle" class="equip" fill="#888">+ glove box</text>

  <!-- Planning table (starboard, fold-down) -->
  <rect x="380" y="450" width="145" height="85" rx="3" fill="#D6EAF8" stroke="#2E86C1" stroke-width="1.5"/>
  <text x="452" y="478" text-anchor="middle" class="equip-bold" font-size="8">PLANNING TABLE</text>
  <text x="452" y="488" text-anchor="middle" class="equip">1.2m × 0.7m (fold-down)</text>
  <text x="452" y="498" text-anchor="middle" class="equip" fill="#888">meals / maps / science</text>
  <!-- Stools -->
  <circle cx="415" cy="518" r="10" fill="#E8E8E8" stroke="#AAA" stroke-width="0.7"/>
  <text x="415" y="521" text-anchor="middle" class="equip" font-size="5">STOOL</text>
  <circle cx="490" cy="518" r="10" fill="#E8E8E8" stroke="#AAA" stroke-width="0.7"/>
  <text x="490" y="521" text-anchor="middle" class="equip" font-size="5">STOOL</text>

  <!-- 24" display above table -->
  <rect x="530" y="540" width="60" height="10" rx="1" fill="#4A4A4A" stroke="#333" stroke-width="0.7"/>
  <text x="560" y="548" text-anchor="middle" class="note" fill="#CCC" font-size="4.5">24" DISPLAY</text>

  <!-- Galley (starboard, forward of table) -->
  <rect x="340" y="475" width="35" height="78" rx="2" fill="#FAD7A0" stroke="#E67E22" stroke-width="1"/>
  <text x="357" y="502" text-anchor="middle" class="equip-bold" font-size="6" writing-mode="tb" transform="rotate(-90,357,510)">GALLEY</text>
  <!-- Galley sub-items -->
  <rect x="343" y="478" width="28" height="18" rx="1" fill="#F5B041" opacity="0.5"/>
  <text x="357" y="490" text-anchor="middle" class="equip" font-size="4.5">OVEN</text>
  <rect x="343" y="500" width="28" height="15" rx="1" fill="#85C1E9" opacity="0.5"/>
  <text x="357" y="510" text-anchor="middle" class="equip" font-size="4.5">H₂O</text>
  <rect x="343" y="519" width="28" height="15" rx="1" fill="#AED6F1" opacity="0.5"/>
  <text x="357" y="529" text-anchor="middle" class="equip" font-size="4.5">COOL</text>

  <!-- Waste receptacle -->
  <rect x="540" y="450" width="35" height="35" rx="3" fill="#D5D8DC" stroke="#808B96" stroke-width="0.7"/>
  <text x="557" y="468" text-anchor="middle" class="equip" font-size="5">WASTE</text>
  <text x="557" y="476" text-anchor="middle" class="equip" font-size="5">BIN</text>

  <!-- ============================================ -->
  <!-- ZONE C EQUIPMENT -->
  <!-- ============================================ -->
  <!-- Lower berths (starboard, 2 side by side) -->
  <rect x="624" y="420" width="120" height="68" rx="3" fill="#D2B4DE" stroke="#8E44AD" stroke-width="1.5"/>
  <rect x="628" y="424" width="55" height="60" rx="2" fill="#E8DAEF" stroke="#8E44AD" stroke-width="0.5"/>
  <text x="655" y="452" text-anchor="middle" class="equip-bold" font-size="6">BERTH 1</text>
  <text x="655" y="462" text-anchor="middle" class="equip" font-size="5">LOWER</text>
  <rect x="687" y="424" width="55" height="60" rx="2" fill="#E8DAEF" stroke="#8E44AD" stroke-width="0.5"/>
  <text x="714" y="452" text-anchor="middle" class="equip-bold" font-size="6">BERTH 2</text>
  <text x="714" y="462" text-anchor="middle" class="equip" font-size="5">LOWER</text>

  <!-- Upper berth (above, indicated by dashed outline) -->
  <rect x="640" y="428" width="90" height="52" rx="2" fill="none" stroke="#8E44AD" stroke-width="1" stroke-dasharray="4,2"/>
  <text x="685" y="410" text-anchor="middle" class="equip" fill="#8E44AD" font-size="6">BERTH 3 (UPPER) ↑</text>

  <!-- Personal lockers -->
  <rect x="750" y="435" width="30" height="50" rx="2" fill="#D5D8DC" stroke="#808B96" stroke-width="0.7"/>
  <text x="765" y="458" text-anchor="middle" class="equip" font-size="5">LOCK</text>
  <text x="765" y="466" text-anchor="middle" class="equip" font-size="5">ERS</text>
  <text x="765" y="474" text-anchor="middle" class="equip" font-size="5">×3</text>

  <!-- Hygiene closet (port side) -->
  <rect x="625" y="135" width="95" height="95" rx="3" fill="#AED6F1" stroke="#2E86C1" stroke-width="1.5"/>
  <text x="672" y="172" text-anchor="middle" class="equip-bold" font-size="7">HYGIENE</text>
  <text x="672" y="182" text-anchor="middle" class="equip-bold" font-size="7">CLOSET</text>
  <text x="672" y="194" text-anchor="middle" class="equip" fill="#555">0.9m × 0.9m</text>
  <text x="672" y="204" text-anchor="middle" class="equip" fill="#555">WCS + handwash</text>
  <!-- Door indication -->
  <line x1="625" y1="210" x2="625" y2="230" stroke="#2E86C1" stroke-width="2"/>
  <path d="M625,230 Q640,240 625,230" fill="none" stroke="#2E86C1" stroke-width="0.7" stroke-dasharray="2,2"/>

  <!-- Medical bench (port side, aft of hygiene) -->
  <rect x="730" y="135" width="130" height="50" rx="3" fill="#FADBD8" stroke="#E74C3C" stroke-width="1"/>
  <text x="795" y="157" text-anchor="middle" class="equip-bold" fill="#C0392B">MEDICAL BENCH</text>
  <text x="795" y="167" text-anchor="middle" class="equip">1.8m × 0.6m (fold-down)</text>
  <text x="795" y="177" text-anchor="middle" class="equip" fill="#888">CMO kit / AED / telemedicine</text>

  <!-- Medical kit + AED -->
  <rect x="780" y="190" width="40" height="18" rx="2" fill="#F5B7B1" stroke="#E74C3C" stroke-width="0.5"/>
  <text x="800" y="202" text-anchor="middle" class="equip" font-size="5" fill="#C0392B">MED KIT</text>
  <rect x="825" y="190" width="25" height="18" rx="2" fill="#F5B7B1" stroke="#E74C3C" stroke-width="0.5"/>
  <text x="837" y="202" text-anchor="middle" class="equip" font-size="5" fill="#C0392B">AED</text>

  <!-- ============================================ -->
  <!-- ZONE D EQUIPMENT -->
  <!-- ============================================ -->
  <!-- ECLSS racks (both sides) -->
  <rect x="888" y="135" width="96" height="110" rx="2" fill="#F9E79F" stroke="#D4AC0D" stroke-width="1"/>
  <text x="936" y="170" text-anchor="middle" class="equip-bold">ECLSS RACKS</text>
  <text x="936" y="180" text-anchor="middle" class="equip">CO₂ / TCCS /</text>
  <text x="936" y="190" text-anchor="middle" class="equip">humidity / water</text>
  <text x="936" y="202" text-anchor="middle" class="equip" fill="#888">(PORT WALL)</text>

  <rect x="888" y="430" width="96" height="110" rx="2" fill="#F9E79F" stroke="#D4AC0D" stroke-width="1"/>
  <text x="936" y="470" text-anchor="middle" class="equip-bold">PDU / SPARES</text>
  <text x="936" y="480" text-anchor="middle" class="equip">power distribution</text>
  <text x="936" y="490" text-anchor="middle" class="equip">filters, sorbent</text>
  <text x="936" y="502" text-anchor="middle" class="equip" fill="#888">(STBD WALL)</text>

  <!-- Floor access panels -->
  <rect x="903" y="280" width="60" height="50" rx="2" fill="none" stroke="#8B4513" stroke-width="1.5" stroke-dasharray="5,3"/>
  <text x="933" y="300" text-anchor="middle" class="equip" fill="#8B4513" font-size="6">FLOOR</text>
  <text x="933" y="310" text-anchor="middle" class="equip" fill="#8B4513" font-size="6">ACCESS</text>
  <text x="933" y="320" text-anchor="middle" class="equip" fill="#8B4513" font-size="6">PANELS</text>

  <!-- ============================================ -->
  <!-- ZONE E: AIRLOCK VESTIBULE -->
  <!-- ============================================ -->
  <!-- Dust door -->
  <rect x="991" y="200" width="6" height="280" rx="1" fill="#E74C3C" stroke="#C0392B" stroke-width="1"/>
  <text x="988" y="345" text-anchor="end" class="equip-bold" fill="#C0392B" font-size="6">DUST</text>
  <text x="988" y="353" text-anchor="end" class="equip-bold" fill="#C0392B" font-size="6">DOOR</text>

  <!-- Suitport 1 -->
  <rect x="1040" y="190" width="24" height="70" rx="5" fill="#E74C3C" opacity="0.3" stroke="#C0392B" stroke-width="1.5"/>
  <text x="1052" y="220" text-anchor="middle" class="equip-bold" fill="#C0392B" font-size="6">SUIT</text>
  <text x="1052" y="230" text-anchor="middle" class="equip-bold" fill="#C0392B" font-size="6">PORT</text>
  <text x="1052" y="240" text-anchor="middle" class="equip-bold" fill="#C0392B" font-size="6">1</text>

  <!-- Suitport 2 -->
  <rect x="1040" y="420" width="24" height="70" rx="5" fill="#E74C3C" opacity="0.3" stroke="#C0392B" stroke-width="1.5"/>
  <text x="1052" y="450" text-anchor="middle" class="equip-bold" fill="#C0392B" font-size="6">SUIT</text>
  <text x="1052" y="460" text-anchor="middle" class="equip-bold" fill="#C0392B" font-size="6">PORT</text>
  <text x="1052" y="470" text-anchor="middle" class="equip-bold" fill="#C0392B" font-size="6">2</text>

  <!-- Vestibule equipment -->
  <rect x="1005" y="310" width="40" height="60" rx="2" fill="#FADBD8" stroke="#E74C3C" stroke-width="0.7"/>
  <text x="1025" y="333" text-anchor="middle" class="equip" font-size="5">HEPA</text>
  <text x="1025" y="341" text-anchor="middle" class="equip" font-size="5">+ E/S</text>
  <text x="1025" y="349" text-anchor="middle" class="equip" font-size="5">PRECIP</text>
  <text x="1025" y="357" text-anchor="middle" class="equip" font-size="5">+ VAC</text>

  <!-- Sticky mat -->
  <rect x="1000" y="375" width="50" height="20" rx="1" fill="#F5CBA7" stroke="#E67E22" stroke-width="0.5"/>
  <text x="1025" y="388" text-anchor="middle" class="equip" font-size="5" fill="#E67E22">STICKY MAT</text>

  <!-- Exterior hatch indication -->
  <rect x="1060" y="290" width="8" height="100" rx="2" fill="#1B3A5C" opacity="0.3" stroke="#1B3A5C" stroke-width="1.5"/>
  <text x="1085" y="335" text-anchor="start" class="equip-bold" fill="#1B3A5C" font-size="7">EXT</text>
  <text x="1085" y="345" text-anchor="start" class="equip-bold" fill="#1B3A5C" font-size="7">HATCH</text>

  <!-- ============================================ -->
  <!-- DIMENSION LINES -->
  <!-- ============================================ -->
  <!-- Overall length (top) -->
  <line x1="134" y1="68" x2="1066" y2="68" class="dim-line"/>
  <line x1="134" y1="62" x2="134" y2="74" class="dim-line"/>
  <line x1="1066" y1="62" x2="1066" y2="74" class="dim-line"/>
  <text x="600" y="65" text-anchor="middle" class="dim" font-size="8" font-weight="bold">8.0 m INTERIOR LENGTH</text>

  <!-- Zone lengths (bottom) -->
  <!-- Zone A -->
  <line x1="134" y1="580" x2="326" y2="580" class="dim-line"/>
  <line x1="134" y1="575" x2="134" y2="585" class="dim-line"/>
  <line x1="326" y1="575" x2="326" y2="585" class="dim-line"/>
  <text x="230" y="592" text-anchor="middle" class="dim" font-size="7">1.6 m</text>

  <!-- Zone B -->
  <line x1="326" y1="580" x2="614" y2="580" class="dim-line"/>
  <line x1="614" y1="575" x2="614" y2="585" class="dim-line"/>
  <text x="470" y="592" text-anchor="middle" class="dim" font-size="7">2.4 m</text>

  <!-- Zone C -->
  <line x1="614" y1="580" x2="878" y2="580" class="dim-line"/>
  <line x1="878" y1="575" x2="878" y2="585" class="dim-line"/>
  <text x="746" y="592" text-anchor="middle" class="dim" font-size="7">2.2 m</text>

  <!-- Zone D -->
  <line x1="878" y1="580" x2="994" y2="580" class="dim-line"/>
  <line x1="994" y1="575" x2="994" y2="585" class="dim-line"/>
  <text x="936" y="592" text-anchor="middle" class="dim" font-size="7">1.2 m</text>

  <!-- Zone E -->
  <line x1="994" y1="580" x2="1066" y2="580" class="dim-line"/>
  <line x1="1066" y1="575" x2="1066" y2="585" class="dim-line"/>
  <text x="1030" y="592" text-anchor="middle" class="dim" font-size="7">0.6 m</text>

  <!-- Width (left side) -->
  <line x1="110" y1="122" x2="110" y2="558" class="dim-line"/>
  <line x1="104" y1="122" x2="116" y2="122" class="dim-line"/>
  <line x1="104" y1="558" x2="116" y2="558" class="dim-line"/>
  <text x="100" y="345" text-anchor="end" class="dim" font-size="8" font-weight="bold" writing-mode="tb" transform="rotate(-90,100,345)">3.4 m INTERIOR WIDTH</text>

  <!-- ============================================ -->
  <!-- STORM SHELTER ZONE INDICATION -->
  <!-- ============================================ -->
  <rect x="614" y="115" width="264" height="450" rx="5" fill="none" stroke="#E74C3C" stroke-width="1.5" stroke-dasharray="8,4" opacity="0.5"/>
  <text x="746" y="565" text-anchor="middle" class="note" fill="#E74C3C" font-size="7">⚠ STORM SHELTER ZONE (water wall deploys here)</text>

  <!-- ============================================ -->
  <!-- LEGEND -->
  <!-- ============================================ -->
  <rect x="15" y="420" width="100" height="140" rx="4" fill="#fff" stroke="#CCC" stroke-width="0.7"/>
  <text x="65" y="435" text-anchor="middle" class="equip-bold" font-size="7">LEGEND</text>
  <rect x="22" y="442" width="10" height="8" fill="#D6EAF8" stroke="#2E86C1" stroke-width="0.5"/>
  <text x="36" y="450" class="equip" font-size="6">Workstation/Table</text>
  <rect x="22" y="454" width="10" height="8" fill="#D2B4DE" stroke="#8E44AD" stroke-width="0.5"/>
  <text x="36" y="462" class="equip" font-size="6">Crew Berth</text>
  <rect x="22" y="466" width="10" height="8" fill="#AED6F1" stroke="#2E86C1" stroke-width="0.5"/>
  <text x="36" y="474" class="equip" font-size="6">Hygiene</text>
  <rect x="22" y="478" width="10" height="8" fill="#FADBD8" stroke="#E74C3C" stroke-width="0.5"/>
  <text x="36" y="486" class="equip" font-size="6">Medical</text>
  <rect x="22" y="490" width="10" height="8" fill="#F9E79F" stroke="#D4AC0D" stroke-width="0.5"/>
  <text x="36" y="498" class="equip" font-size="6">ECLSS/Systems</text>
  <rect x="22" y="502" width="10" height="8" fill="#FAD7A0" stroke="#E67E22" stroke-width="0.5"/>
  <text x="36" y="510" class="equip" font-size="6">Galley</text>
  <rect x="22" y="514" width="10" height="8" fill="#D5F5E3" stroke="#27AE60" stroke-width="0.5"/>
  <text x="36" y="522" class="equip" font-size="6">Science</text>
  <rect x="22" y="526" width="10" height="8" fill="#E74C3C" opacity="0.3" stroke="#C0392B" stroke-width="0.5"/>
  <text x="36" y="534" class="equip" font-size="6">Suitport</text>
  <rect x="22" y="538" width="10" height="8" fill="url(#aisle-hatch)" stroke="#1ABC9C" stroke-width="0.5"/>
  <text x="36" y="546" class="equip" font-size="6">Aisle (port side)</text>

</svg>
