<svg xmlns="http://www.w3.org/2000/svg" viewBox="0 0 900 600" width="900" height="600" font-family="'DM Mono', 'Courier New', monospace">
  <defs>
    <!-- Background gradient -->
    <linearGradient id="bgGrad" x1="0%" y1="0%" x2="0%" y2="100%">
      <stop offset="0%" style="stop-color:#0a0c0f;stop-opacity:1" />
      <stop offset="100%" style="stop-color:#12151a;stop-opacity:1" />
    </linearGradient>

    <!-- Solar panel cell gradient -->
    <linearGradient id="solarCell" x1="0%" y1="0%" x2="100%" y2="100%">
      <stop offset="0%" style="stop-color:#1a2a3a;stop-opacity:1" />
      <stop offset="100%" style="stop-color:#0d1a26;stop-opacity:1" />
    </linearGradient>

    <!-- Radiator surface gradient -->
    <linearGradient id="radiatorGrad" x1="0%" y1="0%" x2="0%" y2="100%">
      <stop offset="0%" style="stop-color:#1e2e3a;stop-opacity:1" />
      <stop offset="100%" style="stop-color:#0f1c26;stop-opacity:1" />
    </linearGradient>

    <!-- Platform/rover body gradient -->
    <linearGradient id="platformGrad" x1="0%" y1="0%" x2="0%" y2="100%">
      <stop offset="0%" style="stop-color:#1e2530;stop-opacity:1" />
      <stop offset="100%" style="stop-color:#12151a;stop-opacity:1" />
    </linearGradient>

    <!-- Accent gold -->
    <linearGradient id="goldGrad" x1="0%" y1="0%" x2="100%" y2="0%">
      <stop offset="0%" style="stop-color:#b8922e;stop-opacity:0" />
      <stop offset="50%" style="stop-color:#d4a843;stop-opacity:1" />
      <stop offset="100%" style="stop-color:#b8922e;stop-opacity:0" />
    </linearGradient>

    <!-- Sun rays gradient -->
    <radialGradient id="sunGlow" cx="50%" cy="50%" r="50%">
      <stop offset="0%" style="stop-color:#ffe066;stop-opacity:0.9" />
      <stop offset="40%" style="stop-color:#f0a020;stop-opacity:0.6" />
      <stop offset="100%" style="stop-color:#d4a843;stop-opacity:0" />
    </radialGradient>

    <!-- IR radiation gradient (warm, downward) -->
    <linearGradient id="irGrad" x1="0%" y1="0%" x2="0%" y2="100%">
      <stop offset="0%" style="stop-color:#ff6b2b;stop-opacity:0.7" />
      <stop offset="100%" style="stop-color:#ff6b2b;stop-opacity:0" />
    </linearGradient>

    <!-- Cold space gradient (upward rejection) -->
    <linearGradient id="coldGrad" x1="0%" y1="100%" x2="0%" y2="0%">
      <stop offset="0%" style="stop-color:#4ab5e8;stop-opacity:0.6" />
      <stop offset="100%" style="stop-color:#4ab5e8;stop-opacity:0" />
    </linearGradient>

    <!-- Space background stars pattern -->
    <filter id="glow">
      <feGaussianBlur stdDeviation="2" result="coloredBlur"/>
      <feMerge>
        <feMergeNode in="coloredBlur"/>
        <feMergeNode in="SourceGraphic"/>
      </feMerge>
    </filter>

    <!-- Clip path for solar panel cells -->
    <clipPath id="panelClip">
      <rect x="120" y="115" width="560" height="70" rx="2"/>
    </clipPath>

    <!-- Clip for radiator cells -->
    <clipPath id="radClip">
      <rect x="160" y="240" width="480" height="55" rx="2"/>
    </clipPath>
  </defs>

  <!-- Background -->
  <rect width="900" height="600" fill="url(#bgGrad)"/>

  <!-- Stars (subtle) -->
  <g opacity="0.4">
    <circle cx="30" cy="25" r="1" fill="#c8cfd8"/>
    <circle cx="80" cy="60" r="0.8" fill="#c8cfd8"/>
    <circle cx="150" cy="15" r="1.2" fill="#c8cfd8"/>
    <circle cx="220" cy="40" r="0.7" fill="#c8cfd8"/>
    <circle cx="310" cy="20" r="1" fill="#c8cfd8"/>
    <circle cx="440" cy="35" r="0.8" fill="#c8cfd8"/>
    <circle cx="550" cy="10" r="1.1" fill="#c8cfd8"/>
    <circle cx="630" cy="55" r="0.7" fill="#c8cfd8"/>
    <circle cx="720" cy="18" r="1" fill="#c8cfd8"/>
    <circle cx="810" cy="45" r="0.9" fill="#c8cfd8"/>
    <circle cx="865" cy="25" r="0.8" fill="#c8cfd8"/>
    <circle cx="55" cy="90" r="0.7" fill="#c8cfd8"/>
    <circle cx="870" cy="80" r="1" fill="#c8cfd8"/>
  </g>

  <!-- Title -->
  <text x="450" y="42" text-anchor="middle" fill="#6b7a8d" font-size="9" letter-spacing="4" font-weight="400" text-transform="uppercase">STACKED SOLAR-SHADE RADIATOR ARCHITECTURE</text>
  <text x="450" y="60" text-anchor="middle" fill="#6b7a8d" font-size="8" letter-spacing="2">CONCEPTUAL CROSS-SECTION · THERMAL &amp; POWER SCHEMATIC</text>
  <line x1="200" y1="68" x2="700" y2="68" stroke="url(#goldGrad)" stroke-width="0.5"/>

  <!-- ==================== SUN ==================== -->
  <!-- Sun body -->
  <circle cx="800" cy="105" r="36" fill="url(#sunGlow)" opacity="0.9" filter="url(#glow)"/>
  <circle cx="800" cy="105" r="22" fill="#ffe066" opacity="0.95"/>
  <circle cx="800" cy="105" r="16" fill="#fff5cc"/>
  <!-- Sun rays -->
  <g stroke="#f0a020" stroke-width="1.5" opacity="0.6">
    <line x1="800" y1="65" x2="800" y2="55"/>
    <line x1="826" y1="79" x2="833" y2="72"/>
    <line x1="836" y1="105" x2="846" y2="105"/>
    <line x1="826" y1="131" x2="833" y2="138"/>
    <line x1="800" y1="145" x2="800" y2="155"/>
    <line x1="774" y1="131" x2="767" y2="138"/>
    <line x1="764" y1="105" x2="754" y2="105"/>
    <line x1="774" y1="79" x2="767" y2="72"/>
  </g>
  <text x="800" y="165" text-anchor="middle" fill="#f0a020" font-size="9" letter-spacing="2" opacity="0.8">SUN</text>
  <text x="800" y="177" text-anchor="middle" fill="#6b7a8d" font-size="8" opacity="0.6">1,361 W/m²</text>

  <!-- ==================== SOLAR RAYS (blocked + allowed) ==================== -->
  <!-- Blocked rays hitting array (dimmed) -->
  <g opacity="0.35" stroke="#f0a020" stroke-width="1.2" stroke-dasharray="4,3">
    <line x1="775" y1="128" x2="620" y2="148"/>
    <line x1="768" y1="115" x2="520" y2="148"/>
    <line x1="762" y1="108" x2="420" y2="147"/>
    <line x1="757" y1="103" x2="320" y2="147"/>
    <line x1="754" y1="100" x2="220" y2="147"/>
  </g>
  <!-- "BLOCKED" label -->
  <text x="490" y="96" text-anchor="middle" fill="#d4a843" font-size="8" letter-spacing="2" opacity="0.7">✕ SOLAR FLUX INTERCEPTED</text>
  <text x="490" y="108" text-anchor="middle" fill="#6b7a8d" font-size="7.5" opacity="0.6">q_solar = S · sin(α) · A</text>

  <!-- ==================== SOLAR ARRAY TIER ==================== -->
  <!-- Array panel shadow/depth -->
  <rect x="123" y="118" width="560" height="70" rx="3" fill="#0a0c0f" opacity="0.5"/>

  <!-- Array panel body -->
  <rect x="120" y="115" width="560" height="70" rx="3" fill="url(#solarCell)" stroke="#1e3a52" stroke-width="1.5"/>

  <!-- Solar cell grid lines -->
  <g clip-path="url(#panelClip)" stroke="#1e3a52" stroke-width="0.5" opacity="0.6">
    <!-- Vertical dividers -->
    <line x1="190" y1="115" x2="190" y2="185"/>
    <line x1="260" y1="115" x2="260" y2="185"/>
    <line x1="330" y1="115" x2="330" y2="185"/>
    <line x1="400" y1="115" x2="400" y2="185"/>
    <line x1="470" y1="115" x2="470" y2="185"/>
    <line x1="540" y1="115" x2="540" y2="185"/>
    <line x1="610" y1="115" x2="610" y2="185"/>
    <!-- Horizontal dividers -->
    <line x1="120" y1="138" x2="680" y2="138"/>
    <line x1="120" y1="162" x2="680" y2="162"/>
  </g>

  <!-- Cell highlights (bluish sheen to look photovoltaic) -->
  <g clip-path="url(#panelClip)" opacity="0.3">
    <rect x="125" y="118" width="62" height="20" fill="#2a4a6a" rx="1"/>
    <rect x="195" y="118" width="62" height="20" fill="#1a3a5a" rx="1"/>
    <rect x="265" y="118" width="62" height="20" fill="#2a4a6a" rx="1"/>
    <rect x="335" y="118" width="62" height="20" fill="#1a3a5a" rx="1"/>
    <rect x="405" y="118" width="62" height="20" fill="#2a4a6a" rx="1"/>
    <rect x="475" y="118" width="62" height="20" fill="#1a3a5a" rx="1"/>
    <rect x="545" y="118" width="62" height="20" fill="#2a4a6a" rx="1"/>
    <rect x="615" y="118" width="62" height="20" fill="#1a3a5a" rx="1"/>

    <rect x="125" y="142" width="62" height="20" fill="#1a3a5a" rx="1"/>
    <rect x="195" y="142" width="62" height="20" fill="#2a4a6a" rx="1"/>
    <rect x="265" y="142" width="62" height="20" fill="#1a3a5a" rx="1"/>
    <rect x="335" y="142" width="62" height="20" fill="#2a4a6a" rx="1"/>
    <rect x="405" y="142" width="62" height="20" fill="#1a3a5a" rx="1"/>
    <rect x="475" y="142" width="62" height="20" fill="#2a4a6a" rx="1"/>
    <rect x="545" y="142" width="62" height="20" fill="#1a3a5a" rx="1"/>
    <rect x="615" y="142" width="62" height="20" fill="#2a4a6a" rx="1"/>

    <rect x="125" y="166" width="62" height="16" fill="#2a4a6a" rx="1"/>
    <rect x="195" y="166" width="62" height="16" fill="#1a3a5a" rx="1"/>
    <rect x="265" y="166" width="62" height="16" fill="#2a4a6a" rx="1"/>
    <rect x="335" y="166" width="62" height="16" fill="#1a3a5a" rx="1"/>
    <rect x="405" y="166" width="62" height="16" fill="#2a4a6a" rx="1"/>
    <rect x="475" y="166" width="62" height="16" fill="#1a3a5a" rx="1"/>
    <rect x="545" y="166" width="62" height="16" fill="#2a4a6a" rx="1"/>
    <rect x="615" y="166" width="62" height="16" fill="#1a3a5a" rx="1"/>
  </g>

  <!-- Top accent line on array -->
  <line x1="120" y1="115" x2="680" y2="115" stroke="#d4a843" stroke-width="1.5" opacity="0.5"/>

  <!-- Array label -->
  <text x="400" y="150" text-anchor="middle" fill="#4ab5e8" font-size="9.5" letter-spacing="3" font-weight="500">PHOTOVOLTAIC SOLAR ARRAY TIER</text>
  <text x="400" y="163" text-anchor="middle" fill="#6b7a8d" font-size="8" letter-spacing="1">ε_back ≤ 0.15 · GaAs or Si cells · rigid panel</text>

  <!-- ==================== TRUSS STRUCTURE ==================== -->
  <!-- 4 vertical truss legs -->
  <g stroke="#2a3342" stroke-width="2" fill="none">
    <!-- Left outer truss -->
    <line x1="165" y1="185" x2="175" y2="238"/>
    <!-- Left inner truss -->
    <line x1="310" y1="185" x2="305" y2="238"/>
    <!-- Right inner truss -->
    <line x1="490" y1="185" x2="495" y2="238"/>
    <!-- Right outer truss -->
    <line x1="635" y1="185" x2="625" y2="238"/>
  </g>
  <!-- Truss cross bracing -->
  <g stroke="#1e2530" stroke-width="1" stroke-dasharray="3,2" fill="none" opacity="0.7">
    <line x1="165" y1="185" x2="310" y2="238"/>
    <line x1="310" y1="185" x2="175" y2="238"/>
    <line x1="310" y1="185" x2="490" y2="238"/>
    <line x1="490" y1="185" x2="305" y2="238"/>
    <line x1="490" y1="185" x2="635" y2="238"/>
    <line x1="635" y1="185" x2="495" y2="238"/>
  </g>

  <!-- Clearance gap annotation -->
  <line x1="85" y1="185" x2="85" y2="240" stroke="#d4a843" stroke-width="0.8" opacity="0.6"/>
  <line x1="80" y1="185" x2="90" y2="185" stroke="#d4a843" stroke-width="0.8" opacity="0.6"/>
  <line x1="80" y1="240" x2="90" y2="240" stroke="#d4a843" stroke-width="0.8" opacity="0.6"/>
  <text x="78" y="215" text-anchor="middle" fill="#d4a843" font-size="8" opacity="0.8">0.3–</text>
  <text x="78" y="225" text-anchor="middle" fill="#d4a843" font-size="8" opacity="0.8">0.5 m</text>
  <text x="78" y="236" text-anchor="middle" fill="#6b7a8d" font-size="7" opacity="0.6">gap</text>

  <!-- ==================== IR BACKRADIATION ==================== -->
  <!-- Downward IR arrows from array underside (warm, orange) -->
  <g opacity="0.5">
    <defs>
      <marker id="arrowIR" markerWidth="6" markerHeight="6" refX="3" refY="3" orient="auto">
        <path d="M0,0 L6,3 L0,6 Z" fill="#ff6b2b" opacity="0.7"/>
      </marker>
    </defs>
    <line x1="220" y1="186" x2="220" y2="232" stroke="#ff6b2b" stroke-width="1.2" stroke-dasharray="2,2" marker-end="url(#arrowIR)"/>
    <line x1="350" y1="186" x2="350" y2="232" stroke="#ff6b2b" stroke-width="1.2" stroke-dasharray="2,2" marker-end="url(#arrowIR)"/>
    <line x1="480" y1="186" x2="480" y2="232" stroke="#ff6b2b" stroke-width="1.2" stroke-dasharray="2,2" marker-end="url(#arrowIR)"/>
    <line x1="580" y1="186" x2="580" y2="232" stroke="#ff6b2b" stroke-width="1.2" stroke-dasharray="2,2" marker-end="url(#arrowIR)"/>
  </g>
  <!-- IR label -->
  <text x="700" y="196" fill="#ff6b2b" font-size="8" letter-spacing="1" opacity="0.7">IR backrad</text>
  <text x="700" y="207" fill="#6b7a8d" font-size="7.5" opacity="0.6">ε_back·σ·T⁴</text>
  <text x="700" y="218" fill="#6b7a8d" font-size="7.5" opacity="0.6">penalty ↓</text>

  <!-- ==================== RADIATOR PANEL ==================== -->
  <!-- Panel shadow -->
  <rect x="163" y="243" width="480" height="55" rx="2" fill="#0a0c0f" opacity="0.6"/>

  <!-- Radiator panel body -->
  <rect x="160" y="240" width="480" height="55" rx="2" fill="url(#radiatorGrad)" stroke="#2a4a5a" stroke-width="1.5"/>

  <!-- Radiator surface texture — embedded fluid channels -->
  <g clip-path="url(#radClip)" opacity="0.5">
    <!-- Fluid channel lines (horizontal, evenly spaced) -->
    <line x1="160" y1="254" x2="640" y2="254" stroke="#1e3a5a" stroke-width="1.5"/>
    <line x1="160" y1="265" x2="640" y2="265" stroke="#1e3a5a" stroke-width="1.5"/>
    <line x1="160" y1="276" x2="640" y2="276" stroke="#1e3a5a" stroke-width="1.5"/>
    <!-- Channel return markers -->
    <circle cx="175" cy="258" r="3" fill="#1e3a5a"/>
    <circle cx="625" cy="258" r="3" fill="#1e3a5a"/>
    <circle cx="175" cy="270" r="3" fill="#1e3a5a"/>
    <circle cx="625" cy="270" r="3" fill="#1e3a5a"/>
    <circle cx="175" cy="280" r="3" fill="#1e3a5a"/>
    <circle cx="625" cy="280" r="3" fill="#1e3a5a"/>
  </g>

  <!-- Top highlight on radiator (white coating) -->
  <line x1="160" y1="240" x2="640" y2="240" stroke="#4ab5e8" stroke-width="1.5" opacity="0.4"/>

  <!-- Radiator label -->
  <text x="400" y="262" text-anchor="middle" fill="#4ab5e8" font-size="9.5" letter-spacing="3" font-weight="500">HORIZONTAL FLAT-PLATE RADIATOR</text>
  <text x="400" y="275" text-anchor="middle" fill="#6b7a8d" font-size="8" letter-spacing="1">ε_rad = 0.88 · AZ-93 or Z-93P coating · T_rad ≈ 310 K</text>
  <text x="400" y="287" text-anchor="middle" fill="#6b7a8d" font-size="8" letter-spacing="1">embedded fluid loop · shaded from direct solar flux</text>

  <!-- ==================== OUTGOING THERMAL REJECTION (upward, sideways) ==================== -->
  <!-- Arrows going up-left and up-right past array edges (space rejection) -->
  <defs>
    <marker id="arrowCold" markerWidth="6" markerHeight="6" refX="3" refY="3" orient="auto">
      <path d="M0,0 L6,3 L0,6 Z" fill="#4ab5e8" opacity="0.8"/>
    </marker>
    <marker id="arrowPower" markerWidth="6" markerHeight="6" refX="3" refY="3" orient="auto">
      <path d="M0,0 L6,3 L0,6 Z" fill="#d4a843" opacity="0.9"/>
    </marker>
  </defs>

  <!-- Cold space rejection arrows (upward through gaps between array and edges) -->
  <g opacity="0.65">
    <!-- Left gap rejection -->
    <line x1="115" y1="235" x2="78" y2="170" stroke="#4ab5e8" stroke-width="1.3" marker-end="url(#arrowCold)"/>
    <line x1="130" y1="237" x2="100" y2="175" stroke="#4ab5e8" stroke-width="1.3" marker-end="url(#arrowCold)"/>
    <!-- Right gap rejection -->
    <line x1="685" y1="235" x2="722" y2="170" stroke="#4ab5e8" stroke-width="1.3" marker-end="url(#arrowCold)"/>
    <line x1="670" y1="237" x2="700" y2="175" stroke="#4ab5e8" stroke-width="1.3" marker-end="url(#arrowCold)"/>
  </g>

  <!-- Space rejection labels -->
  <text x="52" y="162" text-anchor="middle" fill="#4ab5e8" font-size="8" letter-spacing="1" opacity="0.8">→ space</text>
  <text x="52" y="173" fill="#4ab5e8" font-size="7.5" opacity="0.7" text-anchor="middle">rejection</text>
  <text x="748" y="162" text-anchor="middle" fill="#4ab5e8" font-size="8" letter-spacing="1" opacity="0.8">→ space</text>
  <text x="748" y="173" text-anchor="middle" fill="#4ab5e8" font-size="7.5" opacity="0.7">rejection</text>

  <!-- Net rejection banner -->
  <rect x="320" y="298" width="160" height="26" rx="2" fill="#0a1a0a" stroke="#2a5a2a" stroke-width="1" opacity="0.8"/>
  <text x="400" y="309" text-anchor="middle" fill="#4ab5e8" font-size="8.5" letter-spacing="2" font-weight="500">302 W/m² NET</text>
  <text x="400" y="320" text-anchor="middle" fill="#6b7a8d" font-size="7.5" opacity="0.8">shaded · low-ε coating</text>

  <!-- ==================== PLATFORM / ROVER BODY ==================== -->
  <!-- Wheels -->
  <ellipse cx="210" cy="408" rx="32" ry="32" fill="#0f1218" stroke="#1e2530" stroke-width="1.5"/>
  <ellipse cx="210" cy="408" rx="20" ry="20" fill="#12151a" stroke="#2a3342" stroke-width="1"/>
  <ellipse cx="210" cy="408" rx="6" ry="6" fill="#1e2530"/>
  <ellipse cx="590" cy="408" rx="32" ry="32" fill="#0f1218" stroke="#1e2530" stroke-width="1.5"/>
  <ellipse cx="590" cy="408" rx="20" ry="20" fill="#12151a" stroke="#2a3342" stroke-width="1"/>
  <ellipse cx="590" cy="408" rx="6" ry="6" fill="#1e2530"/>

  <!-- Rover body -->
  <rect x="155" y="330" width="490" height="78" rx="6" fill="url(#platformGrad)" stroke="#1e2530" stroke-width="1.5"/>
  <!-- Top edge highlight -->
  <line x1="155" y1="330" x2="645" y2="330" stroke="#2a3342" stroke-width="1"/>

  <!-- Cabin windows -->
  <rect x="220" y="340" width="70" height="45" rx="3" fill="#0a0e14" stroke="#1e2530" stroke-width="1"/>
  <rect x="222" y="342" width="66" height="41" rx="2" fill="#0d141e" opacity="0.8"/>
  <!-- Window shine -->
  <line x1="225" y1="345" x2="240" y2="360" stroke="#2a3a4a" stroke-width="0.8" opacity="0.5"/>

  <rect x="305" y="340" width="70" height="45" rx="3" fill="#0a0e14" stroke="#1e2530" stroke-width="1"/>
  <rect x="307" y="342" width="66" height="41" rx="2" fill="#0d141e" opacity="0.8"/>
  <line x1="310" y1="345" x2="325" y2="360" stroke="#2a3a4a" stroke-width="0.8" opacity="0.5"/>

  <!-- Fluid line entry points (connecting radiator to rover) -->
  <rect x="380" y="325" width="8" height="10" rx="1" fill="#1e3a5a" stroke="#2a4a6a" stroke-width="0.8"/>
  <rect x="412" y="325" width="8" height="10" rx="1" fill="#1e3a5a" stroke="#2a4a6a" stroke-width="0.8"/>

  <!-- Rover label -->
  <text x="550" y="365" fill="#6b7a8d" font-size="8" letter-spacing="2" opacity="0.7">PRESSURIZED</text>
  <text x="550" y="377" fill="#6b7a8d" font-size="8" letter-spacing="2" opacity="0.7">ROVER BODY</text>
  <text x="550" y="390" fill="#6b7a8d" font-size="7.5" opacity="0.5">2,000 kg · crewed</text>

  <!-- ==================== POWER OUTPUT ANNOTATION ==================== -->
  <!-- Power line from array -->
  <line x1="680" y1="150" x2="730" y2="150" stroke="#d4a843" stroke-width="1.2" stroke-dasharray="3,2" opacity="0.7" marker-end="url(#arrowPower)"/>
  <text x="735" y="143" fill="#d4a843" font-size="8.5" letter-spacing="1" opacity="0.9">DC POWER</text>
  <text x="735" y="155" fill="#6b7a8d" font-size="7.5" opacity="0.7">to platform bus</text>

  <!-- ==================== LUNAR SURFACE ==================== -->
  <!-- Surface regolith -->
  <ellipse cx="400" cy="446" rx="320" ry="14" fill="#12151a" opacity="0.9"/>
  <rect x="80" y="440" width="640" height="60" fill="#0d0f13"/>
  <!-- Surface texture dots -->
  <g opacity="0.3" fill="#1e2530">
    <circle cx="120" cy="452" r="2"/>
    <circle cx="180" cy="456" r="1.5"/>
    <circle cx="250" cy="450" r="2.5"/>
    <circle cx="330" cy="455" r="1.5"/>
    <circle cx="450" cy="453" r="2"/>
    <circle cx="530" cy="457" r="1.5"/>
    <circle cx="610" cy="451" r="2"/>
    <circle cx="680" cy="455" r="1.5"/>
    <circle cx="740" cy="452" r="2"/>
  </g>
  <text x="400" y="472" text-anchor="middle" fill="#6b7a8d" font-size="8" letter-spacing="3" opacity="0.5">LUNAR SURFACE REGOLITH</text>

  <!-- ==================== THERMAL EQUATION STRIP ==================== -->
  <rect x="80" y="498" width="740" height="52" rx="3" fill="#12151a" stroke="#1e2530" stroke-width="1" opacity="0.95"/>
  <line x1="80" y1="498" x2="820" y2="498" stroke="url(#goldGrad)" stroke-width="0.8"/>

  <text x="400" y="513" text-anchor="middle" fill="#d4a843" font-size="8" letter-spacing="3" opacity="0.8">NET BENEFIT CONDITION</text>
  <text x="400" y="527" text-anchor="middle" fill="#c8cfd8" font-size="9.5" letter-spacing="1" font-style="italic">q_net_benefit = q_solar_eliminated − q_IR_backrad − q_view_factor_loss</text>
  <text x="400" y="541" text-anchor="middle" fill="#6b7a8d" font-size="8" letter-spacing="1">Condition satisfied for α &gt; 2° with low-ε coating · α &gt; 5–10° uncoated</text>

  <!-- ==================== KEY METRICS RIBBON ==================== -->
  <!-- Metric badges at left/right margins -->
  <!-- Left stack -->
  <rect x="10" y="220" width="62" height="48" rx="2" fill="#12151a" stroke="#1e2530" stroke-width="1"/>
  <text x="41" y="236" text-anchor="middle" fill="#d4a843" font-size="13" font-weight="500">302</text>
  <text x="41" y="248" text-anchor="middle" fill="#6b7a8d" font-size="7" letter-spacing="1">W/m² net</text>
  <text x="41" y="258" text-anchor="middle" fill="#6b7a8d" font-size="7" letter-spacing="1">rejection</text>

  <rect x="10" y="278" width="62" height="48" rx="2" fill="#12151a" stroke="#1e2530" stroke-width="1"/>
  <text x="41" y="294" text-anchor="middle" fill="#d4a843" font-size="13" font-weight="500">≤0.15</text>
  <text x="41" y="306" text-anchor="middle" fill="#6b7a8d" font-size="7" letter-spacing="1">ε_back</text>
  <text x="41" y="316" text-anchor="middle" fill="#6b7a8d" font-size="7" letter-spacing="1">required</text>

  <!-- Right stack -->
  <rect x="828" y="220" width="62" height="48" rx="2" fill="#12151a" stroke="#1e2530" stroke-width="1"/>
  <text x="859" y="236" text-anchor="middle" fill="#d4a843" font-size="13" font-weight="500">~2cm</text>
  <text x="859" y="248" text-anchor="middle" fill="#6b7a8d" font-size="7" letter-spacing="1">CG rise</text>
  <text x="859" y="258" text-anchor="middle" fill="#6b7a8d" font-size="7" letter-spacing="1">2,000 kg</text>

  <rect x="828" y="278" width="62" height="48" rx="2" fill="#12151a" stroke="#1e2530" stroke-width="1"/>
  <text x="859" y="294" text-anchor="middle" fill="#d4a843" font-size="11" font-weight="500">0.3–0.5</text>
  <text x="859" y="306" text-anchor="middle" fill="#6b7a8d" font-size="7" letter-spacing="1">meter gap</text>
  <text x="859" y="316" text-anchor="middle" fill="#6b7a8d" font-size="7" letter-spacing="1">clearance</text>

  <!-- ==================== ANNOTATION LEGEND ==================== -->
  <g transform="translate(80, 556)" opacity="0.75">
    <line x1="0" y1="6" x2="18" y2="6" stroke="#f0a020" stroke-width="1.2" stroke-dasharray="4,2"/>
    <text x="22" y="10" fill="#6b7a8d" font-size="7.5">Solar flux (intercepted)</text>

    <line x1="110" y1="6" x2="128" y2="6" stroke="#ff6b2b" stroke-width="1.2" stroke-dasharray="2,2"/>
    <text x="132" y="10" fill="#6b7a8d" font-size="7.5">IR backradiation</text>

    <line x1="230" y1="6" x2="248" y2="6" stroke="#4ab5e8" stroke-width="1.5"/>
    <text x="252" y="10" fill="#6b7a8d" font-size="7.5">Thermal rejection to space</text>

    <line x1="400" y1="6" x2="418" y2="6" stroke="#d4a843" stroke-width="1.2" stroke-dasharray="3,2"/>
    <text x="422" y="10" fill="#6b7a8d" font-size="7.5">DC power output</text>

    <line x1="520" y1="6" x2="538" y2="6" stroke="#2a3342" stroke-width="1.5"/>
    <text x="542" y="10" fill="#6b7a8d" font-size="7.5">Support truss structure</text>
  </g>

  <!-- Bottom credit -->
  <text x="820" y="593" text-anchor="end" fill="#2a3342" font-size="7.5" letter-spacing="1">AEGIS STATION · SSSRA · FEB 2026</text>
</svg>
