<svg xmlns="http://www.w3.org/2000/svg" viewBox="0 0 1200 525" width="1200" height="525" font-family="'Share Tech Mono', 'Courier New', monospace" role="img" aria-labelledby="t d">
  <title id="t">WOK survey site, cross section: rover with source plate and drill, four-pod geophone line, refracted arrivals through dry regolith into ice-cemented regolith</title>
  <desc id="d">A micro-rover sits on the lunar surface with a seismic source plate on the ground and a drill extended 2.5 m into the subsurface. Four geophone pods lie in a line at 1.5, 3.0, 4.5 and 6.0 m from the plate. Beneath a dry regolith layer about 1.75 m thick lies faster ice-cemented regolith, then a deeper substrate. Direct arrivals run along the surface; refracted arrivals dive to the top of the ice-cemented layer, travel along it, and return to each pod. The drill tip terminates inside the ice-cemented layer, forming the calibration tie point between drill and seismic.</desc>
  <defs>
    <linearGradient id="sky" x1="0" y1="0" x2="0" y2="1"><stop offset="0%" stop-color="#050810"/><stop offset="100%" stop-color="#090e1a"/></linearGradient>
    <linearGradient id="dry" x1="0" y1="0" x2="0" y2="1"><stop offset="0%" stop-color="#1a1d24"/><stop offset="100%" stop-color="#14171e"/></linearGradient>
    <linearGradient id="ice" x1="0" y1="0" x2="0" y2="1"><stop offset="0%" stop-color="#0f2236"/><stop offset="100%" stop-color="#0c1a2b"/></linearGradient>
    <linearGradient id="sub" x1="0" y1="0" x2="0" y2="1"><stop offset="0%" stop-color="#0b0f18"/><stop offset="100%" stop-color="#070a11"/></linearGradient>
    <radialGradient id="lens" cx="50%" cy="50%" r="50%"><stop offset="0%" stop-color="#4ab5e8" stop-opacity="0.22"/><stop offset="100%" stop-color="#4ab5e8" stop-opacity="0"/></radialGradient>
    <pattern id="stipple" width="14" height="14" patternUnits="userSpaceOnUse"><circle cx="3" cy="4" r="0.7" fill="#3a3f4a"/><circle cx="10" cy="11" r="0.7" fill="#3a3f4a"/></pattern>
    <pattern id="hatch" width="12" height="12" patternUnits="userSpaceOnUse" patternTransform="rotate(45)"><line x1="0" y1="0" x2="0" y2="12" stroke="#1e3a5a" stroke-width="0.8"/></pattern>
  </defs>
  <rect width="1200" height="525" fill="url(#sky)"/>
  <g opacity="0.6" fill="#ffffff"><circle cx="120" cy="40" r="0.8"/><circle cx="400" cy="70" r="0.6"/><circle cx="640" cy="30" r="0.9"/><circle cx="880" cy="90" r="0.6"/><circle cx="1010" cy="24" r="0.8"/><circle cx="560" cy="120" r="0.5"/><circle cx="220" cy="130" r="0.5"/><circle cx="760" cy="150" r="0.7"/></g>
  <rect x="70" y="200" width="830" height="140.0" fill="url(#dry)"/>
  <rect x="70" y="200" width="830" height="140.0" fill="url(#stipple)"/>
  <rect x="70" y="340.0" width="830" height="128.0" fill="url(#ice)"/>
  <rect x="70" y="340.0" width="830" height="128.0" fill="url(#hatch)"/>
  <ellipse cx="560" cy="404" rx="300" ry="58" fill="url(#lens)"/>
  <rect x="70" y="468.0" width="830" height="57.0" fill="url(#sub)"/>
  <line x1="70" y1="200" x2="900" y2="200" stroke="#6a8aaa" stroke-width="1.2"/>
  <path d="M70,340.0 C240,334.0 420,346.0 600,340.0 S860,336.0 900,340.0" fill="none" stroke="#5a8ab0" stroke-width="1"/>
  <path d="M70,468.0 C300,473.0 600,463.0 900,468.0" fill="none" stroke="#2a4470" stroke-width="1"/>
  <line x1="64" y1="200" x2="64" y2="520" stroke="#2a4470" stroke-width="1"/>
  <line x1="60" y1="200" x2="68" y2="200" stroke="#2a4470" stroke-width="1"/><text x="54" y="203" text-anchor="end" font-size="8" fill="#5a8ab0">0 m</text><line x1="60" y1="280" x2="68" y2="280" stroke="#2a4470" stroke-width="1"/><text x="54" y="283" text-anchor="end" font-size="8" fill="#5a8ab0">1 m</text><line x1="60" y1="360" x2="68" y2="360" stroke="#2a4470" stroke-width="1"/><text x="54" y="363" text-anchor="end" font-size="8" fill="#5a8ab0">2 m</text><line x1="60" y1="440" x2="68" y2="440" stroke="#2a4470" stroke-width="1"/><text x="54" y="443" text-anchor="end" font-size="8" fill="#5a8ab0">3 m</text><line x1="60" y1="520" x2="68" y2="520" stroke="#2a4470" stroke-width="1"/><text x="54" y="523" text-anchor="end" font-size="8" fill="#5a8ab0">4 m</text>
  <text x="88" y="222" font-size="9.5" fill="#8a94a3">DRY SURFACE REGOLITH</text>
  <text x="88" y="362.0" font-size="9.5" fill="#7fc4e8">ICE-CEMENTED REGOLITH</text>
  <text x="88" y="376.0" font-size="8" fill="#5a8ab0">higher Vp · refractor</text>
  <text x="88" y="490.0" font-size="9.5" fill="#3a5478">DEEPER SUBSTRATE</text>
  <path d="M310,203 Q370,221 430.0,203" fill="none" stroke="#7fc4e8" stroke-width="1" stroke-dasharray="4 3" opacity="0.7"/><path d="M310,203 Q430,227 550.0,203" fill="none" stroke="#7fc4e8" stroke-width="1" stroke-dasharray="4 3" opacity="0.7"/><path d="M310,203 Q490,233 670.0,203" fill="none" stroke="#7fc4e8" stroke-width="1" stroke-dasharray="4 3" opacity="0.7"/><path d="M310,203 Q550,239 790.0,203" fill="none" stroke="#7fc4e8" stroke-width="1" stroke-dasharray="4 3" opacity="0.7"/>
  <path d="M310,200 L408,340.0 L332,340.0 L430.0,200" fill="none" stroke="#e8a825" stroke-width="1.3" opacity="0.55"/><path d="M310,200 L408,340.0 L452,340.0 L550.0,200" fill="none" stroke="#e8a825" stroke-width="1.3" opacity="0.7000000000000001"/><path d="M310,200 L408,340.0 L572,340.0 L670.0,200" fill="none" stroke="#e8a825" stroke-width="1.3" opacity="0.8500000000000001"/><path d="M310,200 L408,340.0 L692,340.0 L790.0,200" fill="none" stroke="#e8a825" stroke-width="1.3" opacity="1.0"/>
  <text x="430" y="244" text-anchor="middle" font-size="8.5" fill="#7fc4e8">direct arrival</text>
  <text x="610" y="332.0" text-anchor="middle" font-size="8.5" fill="#e8a825">refracted arrivals carry layer velocity</text>
  
    <g><rect x="421.0" y="188" width="18" height="12" rx="2" fill="#0d1528" stroke="#a8cce8" stroke-width="1.4"/>
      <line x1="430.0" y1="200" x2="430.0" y2="208" stroke="#a8cce8" stroke-width="1.4"/>
      <circle cx="430.0" cy="194" r="2" fill="#7fc4e8"/>
      <text x="430.0" y="180" text-anchor="middle" font-size="9" fill="#6a8aaa">1.5 m</text></g>
    <g><rect x="541.0" y="188" width="18" height="12" rx="2" fill="#0d1528" stroke="#a8cce8" stroke-width="1.4"/>
      <line x1="550.0" y1="200" x2="550.0" y2="208" stroke="#a8cce8" stroke-width="1.4"/>
      <circle cx="550.0" cy="194" r="2" fill="#7fc4e8"/>
      <text x="550.0" y="180" text-anchor="middle" font-size="9" fill="#6a8aaa">3.0 m</text></g>
    <g><rect x="661.0" y="188" width="18" height="12" rx="2" fill="#0d1528" stroke="#a8cce8" stroke-width="1.4"/>
      <line x1="670.0" y1="200" x2="670.0" y2="208" stroke="#a8cce8" stroke-width="1.4"/>
      <circle cx="670.0" cy="194" r="2" fill="#7fc4e8"/>
      <text x="670.0" y="180" text-anchor="middle" font-size="9" fill="#6a8aaa">4.5 m</text></g>
    <g><rect x="781.0" y="188" width="18" height="12" rx="2" fill="#0d1528" stroke="#a8cce8" stroke-width="1.4"/>
      <line x1="790.0" y1="200" x2="790.0" y2="208" stroke="#a8cce8" stroke-width="1.4"/>
      <circle cx="790.0" cy="194" r="2" fill="#7fc4e8"/>
      <text x="790.0" y="180" text-anchor="middle" font-size="9" fill="#6a8aaa">6.0 m</text></g>
  <text x="610" y="166" text-anchor="middle" font-size="9.5" fill="#a8cce8">GEOPHONE ARRAY · 4 PODS · ROVER-PLACED</text>
  <!-- drill bore + tie point -->
  <rect x="233" y="200" width="6" height="200.0" fill="#050810" stroke="#6a8aaa" stroke-width="0.8"/>
  <path d="M231,400.0 L236,409.0 L241,400.0 Z" fill="#e8a825"/>
  <circle cx="236" cy="402.0" r="14" fill="none" stroke="#e8a825" stroke-width="0.8" stroke-dasharray="2 2"/>
  <text x="260" y="402.0" font-size="8.5" fill="#e8a825">TIE POINT</text>
  <text x="260" y="414.0" font-size="7.5" fill="#a0721a">drill calibrates seismic</text>
  <line x1="214" y1="200" x2="214" y2="400.0" stroke="#6a8aaa" stroke-width="0.8"/>
  <line x1="210" y1="200" x2="218" y2="200" stroke="#6a8aaa" stroke-width="0.8"/>
  <line x1="210" y1="400.0" x2="218" y2="400.0" stroke="#6a8aaa" stroke-width="0.8"/>
  <text x="208" y="300" text-anchor="end" font-size="8" fill="#6a8aaa">2.5 m typ</text>
  <text x="208" y="311" text-anchor="end" font-size="7.5" fill="#3a5478">5 m max</text>
  <!-- rover -->
  <g>
    <rect x="236" y="154" width="122" height="26" rx="3" fill="#111d35" stroke="#a8cce8" stroke-width="1.4"/>
    <rect x="252" y="148" width="40" height="6" fill="#0d1528" stroke="#5a8ab0" stroke-width="1"/>
    <line x1="342" y1="154" x2="342" y2="128" stroke="#a8cce8" stroke-width="1.2"/>
    <path d="M334,128 L350,128 L342,136 Z" fill="none" stroke="#a8cce8" stroke-width="1"/>
    <circle cx="252" cy="188" r="12" fill="#090e1a" stroke="#a8cce8" stroke-width="1.4"/>
    <circle cx="342" cy="188" r="12" fill="#090e1a" stroke="#a8cce8" stroke-width="1.4"/>
    <circle cx="252" cy="188" r="4" fill="none" stroke="#5a8ab0" stroke-width="1"/>
    <circle cx="342" cy="188" r="4" fill="none" stroke="#5a8ab0" stroke-width="1"/>
    <rect x="232" y="116" width="8" height="84" fill="#0d1528" stroke="#a8cce8" stroke-width="1.2"/>
    <rect x="228" y="110" width="16" height="8" fill="#111d35" stroke="#a8cce8" stroke-width="1"/>
    <line x1="310" y1="180" x2="310" y2="194" stroke="#e8a825" stroke-width="1.6"/>
    <rect x="292" y="194" width="36" height="6" fill="#e8a825"/>
    <path d="M280,210 Q310,222 340,210" fill="none" stroke="#e8a825" stroke-width="0.9" opacity="0.7"/>
    <path d="M266,218 Q310,236 354,218" fill="none" stroke="#e8a825" stroke-width="0.9" opacity="0.4"/>
    <rect x="284" y="142" width="14" height="9" rx="2" fill="#0d1528" stroke="#a8cce8" stroke-width="1"/>
  </g>
  <text x="384" y="140" font-size="9.5" fill="#a8cce8">WOK MICRO-ROVER</text>
  <text x="240" y="94" text-anchor="end" font-size="8.5" fill="#a8cce8">DRILL</text>
  <text x="240" y="104" text-anchor="end" font-size="7.5" fill="#5a8ab0">evolved-gas analysis</text>
  <text x="316" y="84" font-size="8.5" fill="#e8a825">EM SOURCE PLATE</text>
  <line x1="310" y1="88" x2="310" y2="144" stroke="#a0721a" stroke-width="0.7" stroke-dasharray="2 3"/>
  <line x1="700" y1="100" x2="780" y2="100" stroke="#a8cce8" stroke-width="1.4"/>
  <line x1="700" y1="95" x2="700" y2="105" stroke="#a8cce8" stroke-width="1.4"/>
  <line x1="780" y1="95" x2="780" y2="105" stroke="#a8cce8" stroke-width="1.4"/>
  <text x="740" y="90" text-anchor="middle" font-size="8.5" fill="#a8cce8">1 m</text>
  <!-- right panel -->
  <rect x="920" y="24" width="256" height="477" fill="#090e1a" stroke="#1e3158" stroke-width="1"/>
  <rect x="920" y="24" width="256" height="2" fill="#e8a825"/>
  <text x="936" y="50" font-size="10" fill="#e8a825" letter-spacing="2">SURVEY CYCLE · PER SITE</text>
  <g font-size="9.5" fill="#c8d8ec">
    <text x="936" y="76"><tspan fill="#a0721a">01</tspan>  Traverse to site</text>
    <text x="936" y="94"><tspan fill="#a0721a">02</tspan>  Place array, verify coupling</text>
    <text x="936" y="112"><tspan fill="#a0721a">03</tspan>  Fire stacked strikes, record</text>
    <text x="936" y="130"><tspan fill="#a0721a">04</tspan>  Evaluate onboard for ice</text>
    <text x="936" y="148"><tspan fill="#a0721a">05</tspan>  Drill if warranted, ground truth</text>
    <text x="936" y="166"><tspan fill="#a0721a">06</tspan>  Retrieve, continue to next site</text>
  </g>
  <line x1="936" y1="184" x2="1160" y2="184" stroke="#1e3158"/>
  <text x="936" y="208" font-size="10" fill="#e8a825" letter-spacing="2">PREMISE</text>
  <g font-size="9" fill="#8fa5bd">
    <text x="936" y="228">Ice-cemented regolith transmits</text>
    <text x="936" y="242">seismic energy faster than dry</text>
    <text x="936" y="256">regolith. Where drill and seismic</text>
    <text x="936" y="270">sample the same site, the drill</text>
    <text x="936" y="284">calibrates the seismic.</text>
  </g>
  <line x1="936" y1="302" x2="1160" y2="302" stroke="#1e3158"/>
  <text x="936" y="326" font-size="10" fill="#e8a825" letter-spacing="2">DEPTH OF CONFIDENCE</text>
  <g font-size="9">
    <rect x="936" y="340" width="10" height="10" fill="#e8a825"/><text x="954" y="349" fill="#c8d8ec">Drilled · direct sample</text>
    <rect x="936" y="358" width="10" height="10" fill="none" stroke="#7fc4e8"/><text x="954" y="367" fill="#c8d8ec">Seismic-inferred · calibrated</text>
    <text x="954" y="380" fill="#5a8ab0">below drill reach, by tie point</text>
  </g>
  <line x1="936" y1="398" x2="1160" y2="398" stroke="#1e3158"/>
  <g font-size="8" fill="#5a8ab0">
    <text x="936" y="420">SOURCE   compact EM · impulse / sweep</text>
    <text x="936" y="434">ARRAY    4 pods · 1.5–6.0 m offsets</text>
    <text x="936" y="448">ACQ      4 ch · 4 kHz · stacked</text>
    <text x="936" y="462">DRILL    2.5 m typ · 5 m max</text>
  </g>
  <text x="936" y="490" font-size="8" fill="#3a5478">WOK-CONCEPT-001 · NOTIONAL · NOT TO SCALE</text>
</svg>
