<?xml version="1.0" encoding="UTF-8"?>
<svg xmlns="http://www.w3.org/2000/svg"
     viewBox="0 0 1400 788"
     width="1400" height="788"
     preserveAspectRatio="xMidYMid meet">

  <defs>
    <linearGradient id="gSpace" x1="0" y1="0" x2="0" y2="1">
      <stop offset="0%" stop-color="#01020a"/>
      <stop offset="60%" stop-color="#03071e"/>
      <stop offset="100%" stop-color="#0d1b2a"/>
    </linearGradient>
    <linearGradient id="gSurface" x1="0" y1="0" x2="0" y2="1">
      <stop offset="0%" stop-color="#c4b49a"/>
      <stop offset="40%" stop-color="#a89878"/>
      <stop offset="100%" stop-color="#6b5f4a"/>
    </linearGradient>
    <radialGradient id="gSunGlow" cx="50%" cy="50%" r="50%">
      <stop offset="0%" stop-color="#fff8dc" stop-opacity="1"/>
      <stop offset="50%" stop-color="#ffe066" stop-opacity="0.4"/>
      <stop offset="100%" stop-color="#ffe066" stop-opacity="0"/>
    </radialGradient>
    <linearGradient id="gCmdBody" x1="0" y1="0" x2="0" y2="1">
      <stop offset="0%" stop-color="#2e3648"/>
      <stop offset="50%" stop-color="#1e2838"/>
      <stop offset="100%" stop-color="#111820"/>
    </linearGradient>
    <linearGradient id="gPaxBody" x1="0" y1="0" x2="0" y2="1">
      <stop offset="0%" stop-color="#272f3e"/>
      <stop offset="50%" stop-color="#1a2232"/>
      <stop offset="100%" stop-color="#0f1520"/>
    </linearGradient>
    <linearGradient id="gTread" x1="0" y1="0" x2="0" y2="1">
      <stop offset="0%" stop-color="#383838"/>
      <stop offset="100%" stop-color="#181818"/>
    </linearGradient>
    <linearGradient id="gRadiator" x1="0" y1="0" x2="0" y2="1">
      <stop offset="0%" stop-color="#d0dde8"/>
      <stop offset="100%" stop-color="#8ea8c0"/>
    </linearGradient>
    <radialGradient id="gWheel" cx="38%" cy="38%" r="62%">
      <stop offset="0%" stop-color="#50586a"/>
      <stop offset="100%" stop-color="#1a1e28"/>
    </radialGradient>
    <radialGradient id="gViewport" cx="45%" cy="40%" r="60%">
      <stop offset="0%" stop-color="#b8eaff" stop-opacity="0.9"/>
      <stop offset="100%" stop-color="#1060a0" stop-opacity="0.4"/>
    </radialGradient>

    <pattern id="pSolar" x="0" y="0" width="14" height="14" patternUnits="userSpaceOnUse">
      <rect width="14" height="14" fill="#0d2050"/>
      <rect x="1" y="1" width="12" height="12" fill="#183878" opacity="0.85"/>
      <line x1="0" y1="0" x2="14" y2="0" stroke="#091430" stroke-width="1"/>
      <line x1="0" y1="0" x2="0" y2="14" stroke="#091430" stroke-width="1"/>
    </pattern>
    <pattern id="pRegolith" x="0" y="0" width="70" height="22" patternUnits="userSpaceOnUse">
      <ellipse cx="12" cy="19" rx="9" ry="3" fill="none" stroke="#80725a" stroke-width="0.6" opacity="0.45"/>
      <ellipse cx="44" cy="17" rx="6" ry="2" fill="none" stroke="#80725a" stroke-width="0.5" opacity="0.35"/>
    </pattern>
    <pattern id="pTread" x="0" y="0" width="20" height="120" patternUnits="userSpaceOnUse">
      <rect width="20" height="120" fill="#222"/>
      <rect x="2" y="0" width="16" height="120" fill="#2c2c2c"/>
      <rect x="0" y="0"   width="20" height="2" fill="#111"/>
      <rect x="0" y="20"  width="20" height="2" fill="#111"/>
      <rect x="0" y="40"  width="20" height="2" fill="#111"/>
      <rect x="0" y="60"  width="20" height="2" fill="#111"/>
      <rect x="0" y="80"  width="20" height="2" fill="#111"/>
      <rect x="0" y="100" width="20" height="2" fill="#111"/>
    </pattern>

    <filter id="fShadow" x="-8%" y="-8%" width="116%" height="116%">
      <feDropShadow dx="2" dy="6" stdDeviation="5" flood-color="#000000" flood-opacity="0.55"/>
    </filter>
    <filter id="fGlow" x="-50%" y="-50%" width="200%" height="200%">
      <feGaussianBlur stdDeviation="2.5" result="blur"/>
      <feMerge>
        <feMergeNode in="blur"/>
        <feMergeNode in="SourceGraphic"/>
      </feMerge>
    </filter>
  </defs>

  <!-- BACKGROUND -->
  <rect width="1400" height="788" fill="url(#gSpace)"/>

  <!-- Stars -->
  <g fill="white">
    <circle cx="40"   cy="28"  r="0.8"/><circle cx="110"  cy="55"  r="1.1"/>
    <circle cx="210"  cy="18"  r="0.7"/><circle cx="330"  cy="42"  r="1.0"/>
    <circle cx="450"  cy="14"  r="0.9"/><circle cx="560"  cy="35"  r="0.6"/>
    <circle cx="670"  cy="20"  r="1.2"/><circle cx="780"  cy="50"  r="0.8"/>
    <circle cx="890"  cy="10"  r="1.1"/><circle cx="980"  cy="38"  r="0.7"/>
    <circle cx="1080" cy="22"  r="0.9"/><circle cx="1180" cy="55"  r="1.0"/>
    <circle cx="1300" cy="30"  r="0.8"/><circle cx="1380" cy="15"  r="1.1"/>
    <circle cx="75"   cy="95"  r="0.7"/><circle cx="190"  cy="78"  r="0.9"/>
    <circle cx="310"  cy="100" r="1.0"/><circle cx="430"  cy="82"  r="0.7"/>
    <circle cx="620"  cy="70"  r="1.1"/><circle cx="720"  cy="92"  r="0.8"/>
    <circle cx="840"  cy="65"  r="0.6"/><circle cx="940"  cy="88"  r="1.0"/>
    <circle cx="1050" cy="75"  r="0.8"/><circle cx="1140" cy="100" r="0.7"/>
    <circle cx="1250" cy="60"  r="0.9"/><circle cx="1350" cy="90"  r="1.1"/>
    <circle cx="55"   cy="145" r="0.8"/><circle cx="165"  cy="125" r="0.6"/>
    <circle cx="380"  cy="135" r="1.0"/><circle cx="510"  cy="110" r="0.8"/>
    <circle cx="760"  cy="130" r="1.0"/><circle cx="1010" cy="118" r="0.7"/>
    <circle cx="1200" cy="138" r="0.9"/><circle cx="1340" cy="120" r="0.8"/>
    <circle cx="90"   cy="175" r="0.6"/><circle cx="280"  cy="160" r="0.9"/>
    <circle cx="480"  cy="170" r="0.7"/><circle cx="680"  cy="155" r="1.0"/>
    <circle cx="900"  cy="165" r="0.8"/><circle cx="1100" cy="150" r="0.7"/>
  </g>

  <!-- Sun — low south-pole angle -->
  <ellipse cx="1290" cy="390" rx="100" ry="100" fill="url(#gSunGlow)" opacity="0.35"/>
  <circle  cx="1290" cy="390" r="26" fill="#fff8dc"/>
  <circle  cx="1290" cy="390" r="21" fill="#ffee88"/>
  <g stroke="#fff8dc" stroke-width="1.5" opacity="0.35">
    <line x1="1290" y1="356" x2="1290" y2="338"/>
    <line x1="1314" y1="366" x2="1328" y2="352"/>
    <line x1="1324" y1="390" x2="1342" y2="390"/>
    <line x1="1314" y1="414" x2="1328" y2="428"/>
    <line x1="1290" y1="424" x2="1290" y2="442"/>
    <line x1="1266" y1="414" x2="1252" y2="428"/>
    <line x1="1256" y1="390" x2="1238" y2="390"/>
    <line x1="1266" y1="366" x2="1252" y2="352"/>
  </g>

  <!-- LUNAR HORIZON -->
  <path d="M0,400 Q90,365 180,378 Q270,392 360,368 Q450,344 540,360
           Q630,376 720,352 Q810,328 900,346 Q990,364 1080,338
           Q1170,312 1260,348 Q1310,368 1400,365 L1400,460 L0,460 Z"
        fill="#5e5448" opacity="0.65"/>
  <path d="M0,415 Q110,390 220,403 Q330,416 440,394 Q550,372 660,388
           Q770,404 880,382 Q990,360 1100,378 Q1210,396 1400,382
           L1400,468 L0,468 Z"
        fill="#6e6354" opacity="0.7"/>

  <!-- Ground surface -->
  <rect x="0" y="458" width="1400" height="330" fill="url(#gSurface)"/>
  <rect x="0" y="458" width="1400" height="330" fill="url(#pRegolith)" opacity="0.45"/>

  <!-- Craters -->
  <ellipse cx="110"  cy="500" rx="50"  ry="14" fill="none" stroke="#a09070" stroke-width="1.5" opacity="0.38"/>
  <ellipse cx="340"  cy="525" rx="32"  ry="9"  fill="none" stroke="#a09070" stroke-width="1"   opacity="0.28"/>
  <ellipse cx="1140" cy="505" rx="60"  ry="16" fill="none" stroke="#a09070" stroke-width="1.5" opacity="0.35"/>
  <ellipse cx="1300" cy="540" rx="38"  ry="10" fill="none" stroke="#a09070" stroke-width="1"   opacity="0.28"/>
  <ellipse cx="850"  cy="570" rx="28"  ry="7"  fill="none" stroke="#a09070" stroke-width="1"   opacity="0.22"/>

  <!-- Rover tracks -->
  <g opacity="0.5">
    <path d="M50,482 Q200,476 370,480 Q440,482 540,484"
          fill="none" stroke="#6b5f4a" stroke-width="16"/>
    <path d="M50,482 Q200,476 370,480 Q440,482 540,484"
          fill="none" stroke="#c0b098" stroke-width="4" stroke-dasharray="18,9"/>
    <path d="M50,498 Q200,492 370,496 Q440,498 540,500"
          fill="none" stroke="#6b5f4a" stroke-width="16"/>
    <path d="M50,498 Q200,492 370,496 Q440,498 540,500"
          fill="none" stroke="#c0b098" stroke-width="4" stroke-dasharray="18,9"/>
  </g>

  <!-- ============================================================ -->
  <!-- ROVER  (ground y=490, wheel cy=448, wheel r=42)              -->
  <!-- CMD body x=578–940  PAX body x=940–1360                      -->
  <!-- CMD 3 wheels: W1=632 W2=746 W3=860  (228px=6.5m WB)        -->
  <!-- Body top y=308  Radiator y=294  Truss y=268  Solar y=254    -->
  <!-- Total height: 490-254 = 236px / 35px/m ≈ 6.7m               -->
  <!-- ============================================================ -->

  <!-- Ground shadow -->
  <ellipse cx="900" cy="492" rx="440" ry="13" fill="#000000" opacity="0.38"/>

  <!-- TREAD HOUSINGS -->
  <rect x="578" y="430" width="368" height="44" rx="7" fill="url(#gTread)" filter="url(#fShadow)"/>
  <rect x="578" y="430" width="368" height="44" rx="7" fill="url(#pTread)" opacity="0.85"/>
  <rect x="578" y="430" width="368" height="4"  rx="2" fill="#444" opacity="0.7"/>
  <rect x="578" y="470" width="368" height="4"  rx="2" fill="#111" opacity="0.9"/>

  <rect x="946" y="430" width="408" height="44" rx="7" fill="url(#gTread)" filter="url(#fShadow)"/>
  <rect x="946" y="430" width="408" height="44" rx="7" fill="url(#pTread)" opacity="0.85"/>
  <rect x="946" y="430" width="408" height="4"  rx="2" fill="#444" opacity="0.7"/>
  <rect x="946" y="470" width="408" height="4"  rx="2" fill="#111" opacity="0.9"/>

  <!-- CMD SUSPENSION STRUTS -->
  <g stroke="#1c2430" stroke-width="6" stroke-linecap="round">
    <line x1="632" y1="428" x2="632" y2="448"/>
    <line x1="746" y1="428" x2="746" y2="448"/>
    <line x1="860" y1="428" x2="860" y2="448"/>
  </g>

  <!-- W1 rear CMD -->
  <circle cx="632" cy="448" r="42" fill="url(#gWheel)" stroke="#111" stroke-width="2.5" filter="url(#fShadow)"/>
  <circle cx="632" cy="448" r="42" fill="none" stroke="#2a2a2a" stroke-width="8"/>
  <circle cx="632" cy="448" r="26" fill="#252a34"/>
  <circle cx="632" cy="448" r="11" fill="#181c24"/>
  <g fill="#505868">
    <circle cx="632" cy="428" r="3.5"/>
    <circle cx="632" cy="468" r="3.5"/>
    <circle cx="613" cy="437" r="3.5"/>
    <circle cx="651" cy="437" r="3.5"/>
    <circle cx="613" cy="459" r="3.5"/>
    <circle cx="651" cy="459" r="3.5"/>
  </g>

  <!-- W2 mid CMD -->
  <circle cx="746" cy="448" r="42" fill="url(#gWheel)" stroke="#111" stroke-width="2.5" filter="url(#fShadow)"/>
  <circle cx="746" cy="448" r="42" fill="none" stroke="#2a2a2a" stroke-width="8"/>
  <circle cx="746" cy="448" r="26" fill="#252a34"/>
  <circle cx="746" cy="448" r="11" fill="#181c24"/>
  <g fill="#505868">
    <circle cx="746" cy="428" r="3.5"/>
    <circle cx="746" cy="468" r="3.5"/>
    <circle cx="727" cy="437" r="3.5"/>
    <circle cx="765" cy="437" r="3.5"/>
    <circle cx="727" cy="459" r="3.5"/>
    <circle cx="765" cy="459" r="3.5"/>
  </g>

  <!-- W3 front CMD -->
  <circle cx="860" cy="448" r="42" fill="url(#gWheel)" stroke="#111" stroke-width="2.5" filter="url(#fShadow)"/>
  <circle cx="860" cy="448" r="42" fill="none" stroke="#2a2a2a" stroke-width="8"/>
  <circle cx="860" cy="448" r="26" fill="#252a34"/>
  <circle cx="860" cy="448" r="11" fill="#181c24"/>
  <g fill="#505868">
    <circle cx="860" cy="428" r="3.5"/>
    <circle cx="860" cy="468" r="3.5"/>
    <circle cx="841" cy="437" r="3.5"/>
    <circle cx="879" cy="437" r="3.5"/>
    <circle cx="841" cy="459" r="3.5"/>
    <circle cx="879" cy="459" r="3.5"/>
  </g>

  <!-- PAX SUSPENSION STRUTS -->
  <g stroke="#1c2430" stroke-width="6" stroke-linecap="round">
    <line x1="1050" y1="428" x2="1050" y2="448"/>
    <line x1="1240" y1="428" x2="1240" y2="448"/>
  </g>

  <!-- W4 PAX -->
  <circle cx="1050" cy="448" r="42" fill="url(#gWheel)" stroke="#111" stroke-width="2.5" filter="url(#fShadow)"/>
  <circle cx="1050" cy="448" r="42" fill="none" stroke="#2a2a2a" stroke-width="8"/>
  <circle cx="1050" cy="448" r="26" fill="#252a34"/>
  <circle cx="1050" cy="448" r="11" fill="#181c24"/>
  <g fill="#505868">
    <circle cx="1050" cy="428" r="3.5"/>
    <circle cx="1050" cy="468" r="3.5"/>
    <circle cx="1031" cy="437" r="3.5"/>
    <circle cx="1069" cy="437" r="3.5"/>
    <circle cx="1031" cy="459" r="3.5"/>
    <circle cx="1069" cy="459" r="3.5"/>
  </g>

  <!-- W5 PAX -->
  <circle cx="1240" cy="448" r="42" fill="url(#gWheel)" stroke="#111" stroke-width="2.5" filter="url(#fShadow)"/>
  <circle cx="1240" cy="448" r="42" fill="none" stroke="#2a2a2a" stroke-width="8"/>
  <circle cx="1240" cy="448" r="26" fill="#252a34"/>
  <circle cx="1240" cy="448" r="11" fill="#181c24"/>
  <g fill="#505868">
    <circle cx="1240" cy="428" r="3.5"/>
    <circle cx="1240" cy="468" r="3.5"/>
    <circle cx="1221" cy="437" r="3.5"/>
    <circle cx="1259" cy="437" r="3.5"/>
    <circle cx="1221" cy="459" r="3.5"/>
    <circle cx="1259" cy="459" r="3.5"/>
  </g>

  <!-- CMD MODULE BODY -->
  <path d="M580,315 L580,428 L554,422 L536,402 L536,336 L557,316 Z"
        fill="url(#gCmdBody)" filter="url(#fShadow)"/>
  <path d="M580,315 L557,316 L536,336 L536,402 L554,422 L580,428"
        fill="none" stroke="#283040" stroke-width="1.5"/>

  <rect x="580" y="308" width="360" height="122" rx="7" fill="url(#gCmdBody)" filter="url(#fShadow)"/>
  <rect x="580" y="308" width="360" height="6"   rx="4" fill="#3a4a60" opacity="0.65"/>
  <rect x="580" y="426" width="360" height="4"   rx="2" fill="#0a0e14"/>

  <!-- Panel seams CMD -->
  <g stroke="#222e3e" stroke-width="1" opacity="0.55">
    <line x1="650" y1="308" x2="650" y2="430"/>
    <line x1="730" y1="308" x2="730" y2="430"/>
    <line x1="810" y1="308" x2="810" y2="430"/>
    <line x1="875" y1="308" x2="875" y2="430"/>
    <line x1="580" y1="352" x2="940" y2="352"/>
    <line x1="580" y1="390" x2="940" y2="390"/>
  </g>

  <!-- Pilot viewport (nose) -->
  <ellipse cx="548" cy="366" rx="14" ry="22" fill="url(#gViewport)" stroke="#1e3858" stroke-width="2"/>
  <ellipse cx="546" cy="360" rx="5"  ry="9"  fill="white" opacity="0.12" transform="rotate(-15,546,360)"/>

  <!-- Side viewports CMD -->
  <rect x="598" y="320" width="58" height="38" rx="5" fill="url(#gViewport)" stroke="#1e3858" stroke-width="1.5"/>
  <rect x="601" y="323" width="20" height="24" fill="white" opacity="0.07" rx="2"/>
  <rect x="672" y="320" width="58" height="38" rx="5" fill="url(#gViewport)" stroke="#1e3858" stroke-width="1.5"/>
  <rect x="675" y="323" width="20" height="24" fill="white" opacity="0.07" rx="2"/>
  <rect x="748" y="320" width="58" height="38" rx="5" fill="url(#gViewport)" stroke="#1e3858" stroke-width="1.5"/>
  <rect x="751" y="323" width="20" height="24" fill="white" opacity="0.07" rx="2"/>

  <!-- Airlock hatch CMD -->
  <rect x="854" y="338" width="42" height="58" rx="5" fill="#141c28" stroke="#2a4060" stroke-width="2"/>
  <rect x="860" y="345" width="30" height="44" rx="3" fill="#0c1420" stroke="#1e3050" stroke-width="1"/>
  <rect x="868" y="364" width="16" height="4" rx="2" fill="#3a5878"/>
  <circle cx="876" cy="366" r="3" fill="#2a4868"/>
  <circle cx="862" cy="351" r="3" fill="#44ff88" opacity="0.85" filter="url(#fGlow)"/>

  <!-- Antenna mast CMD -->
  <line x1="700" y1="308" x2="700" y2="258" stroke="#283848" stroke-width="3"/>
  <line x1="700" y1="258" x2="672" y2="274" stroke="#283848" stroke-width="2"/>
  <line x1="700" y1="258" x2="728" y2="274" stroke="#283848" stroke-width="2"/>
  <path d="M678,270 Q700,256 722,270" fill="none" stroke="#3a5878" stroke-width="3"/>
  <circle cx="700" cy="270" r="3.5" fill="#4a88cc"/>

  <!-- Nav lights + LEDs -->
  <circle cx="536" cy="323" r="5" fill="#ff4040" opacity="0.9" filter="url(#fGlow)"/>
  <circle cx="592" cy="314" r="2.5" fill="#44aaff" opacity="0.9" filter="url(#fGlow)"/>

  <!-- CMD label -->
  <text x="806" y="420" font-size="9" fill="#3a6898" letter-spacing="2.5"
        font-family="Courier New, monospace" opacity="0.75">CMD</text>

  <!-- PAX MODULE BODY -->
  <rect x="942" y="300" width="418" height="130" rx="6" fill="url(#gPaxBody)" filter="url(#fShadow)"/>
  <rect x="942" y="300" width="418" height="5"   rx="3" fill="#3a4a60" opacity="0.6"/>
  <rect x="942" y="426" width="418" height="4"   rx="2" fill="#0a0e14"/>

  <!-- Panel seams PAX -->
  <g stroke="#1e2a3c" stroke-width="1" opacity="0.5">
    <line x1="1010" y1="300" x2="1010" y2="430"/>
    <line x1="1090" y1="300" x2="1090" y2="430"/>
    <line x1="1170" y1="300" x2="1170" y2="430"/>
    <line x1="1250" y1="300" x2="1250" y2="430"/>
    <line x1="1330" y1="300" x2="1330" y2="430"/>
    <line x1="942"  y1="344" x2="1360" y2="344"/>
    <line x1="942"  y1="386" x2="1360" y2="386"/>
  </g>

  <!-- Panoramic viewports PAX -->
  <rect x="956"  y="312" width="60" height="44" rx="5" fill="url(#gViewport)" stroke="#1e3858" stroke-width="1.5"/>
  <rect x="959"  y="315" width="20" height="27" fill="white" opacity="0.07" rx="2"/>
  <rect x="1030" y="312" width="60" height="44" rx="5" fill="url(#gViewport)" stroke="#1e3858" stroke-width="1.5"/>
  <rect x="1033" y="315" width="20" height="27" fill="white" opacity="0.07" rx="2"/>
  <rect x="1104" y="312" width="60" height="44" rx="5" fill="url(#gViewport)" stroke="#1e3858" stroke-width="1.5"/>
  <rect x="1107" y="315" width="20" height="27" fill="white" opacity="0.07" rx="2"/>
  <rect x="1178" y="312" width="60" height="44" rx="5" fill="url(#gViewport)" stroke="#1e3858" stroke-width="1.5"/>
  <rect x="1181" y="315" width="20" height="27" fill="white" opacity="0.07" rx="2"/>
  <rect x="1252" y="312" width="60" height="44" rx="5" fill="url(#gViewport)" stroke="#1e3858" stroke-width="1.5"/>
  <rect x="1255" y="315" width="20" height="27" fill="white" opacity="0.07" rx="2"/>

  <!-- Crew airlock PAX -->
  <rect x="1142" y="362" width="46" height="66" rx="5" fill="#141c28" stroke="#2a4060" stroke-width="2"/>
  <rect x="1149" y="369" width="32" height="51" rx="3" fill="#0c1420" stroke="#1e3050" stroke-width="1"/>
  <rect x="1157" y="390" width="18" height="4" rx="2" fill="#3a5878"/>
  <circle cx="1166" cy="392" r="3" fill="#2a4868"/>
  <circle cx="1151" cy="376" r="3" fill="#44ff88" opacity="0.85" filter="url(#fGlow)"/>

  <!-- Module coupler CMD→PAX -->
  <rect x="938" y="314" width="12" height="118" rx="3" fill="#0e1520" stroke="#2a3858" stroke-width="2"/>
  <rect x="941" y="328" width="6" height="14" rx="2" fill="#1e3050"/>
  <rect x="941" y="366" width="6" height="14" rx="2" fill="#1e3050"/>
  <rect x="941" y="402" width="6" height="14" rx="2" fill="#1e3050"/>

  <!-- Aegis wordmark -->
  <text x="1150" y="388" font-size="24" fill="#18304e" font-weight="bold" letter-spacing="7"
        text-anchor="middle" opacity="0.52" font-family="Courier New, monospace">AEGIS</text>
  <text x="1150" y="403" font-size="9" fill="#1e4068" letter-spacing="4"
        text-anchor="middle" opacity="0.65" font-family="Courier New, monospace">CLASS ROVER</text>

  <!-- Running lights -->
  <g filter="url(#fGlow)">
    <circle cx="756" cy="428" r="3" fill="#ffaa00" opacity="0.8"/>
    <circle cx="942" cy="428" r="3" fill="#ffaa00" opacity="0.8"/>
    <circle cx="1190" cy="430" r="3" fill="#ffaa00" opacity="0.8"/>
    <circle cx="946" cy="306" r="2.5" fill="#44aaff" opacity="0.85"/>
  </g>

  <!-- PAX label -->
  <text x="1300" y="422" font-size="9" fill="#3a6898" letter-spacing="2.5"
        font-family="Courier New, monospace" opacity="0.75">PAX</text>

  <!-- ================================================ -->
  <!-- SSSRA ROOF SYSTEM                                 -->
  <!-- Radiator  y=294–309   Truss y=268–294  Solar y=254–268 -->
  <!-- ================================================ -->

  <!-- RADIATOR — CMD -->
  <rect x="586" y="294" width="348" height="15" rx="3" fill="url(#gRadiator)" stroke="#aabccc" stroke-width="1"/>
  <g stroke="#9aaec0" stroke-width="0.7" opacity="0.7">
    <line x1="635" y1="294" x2="635" y2="309"/>
    <line x1="684" y1="294" x2="684" y2="309"/>
    <line x1="733" y1="294" x2="733" y2="309"/>
    <line x1="782" y1="294" x2="782" y2="309"/>
    <line x1="831" y1="294" x2="831" y2="309"/>
    <line x1="880" y1="294" x2="880" y2="309"/>
  </g>
  <rect x="582" y="296" width="6" height="11" rx="2" fill="#6080a0"/>
  <rect x="932" y="296" width="6" height="11" rx="2" fill="#6080a0"/>

  <!-- RADIATOR — PAX -->
  <rect x="944" y="286" width="410" height="15" rx="3" fill="url(#gRadiator)" stroke="#aabccc" stroke-width="1"/>
  <g stroke="#9aaec0" stroke-width="0.7" opacity="0.7">
    <line x1="995"  y1="286" x2="995"  y2="301"/>
    <line x1="1050" y1="286" x2="1050" y2="301"/>
    <line x1="1105" y1="286" x2="1105" y2="301"/>
    <line x1="1160" y1="286" x2="1160" y2="301"/>
    <line x1="1215" y1="286" x2="1215" y2="301"/>
    <line x1="1270" y1="286" x2="1270" y2="301"/>
    <line x1="1315" y1="286" x2="1315" y2="301"/>
  </g>
  <rect x="940" y="288" width="6" height="11" rx="2" fill="#6080a0"/>
  <rect x="1352" y="288" width="6" height="11" rx="2" fill="#6080a0"/>

  <!-- TRUSS POSTS — CMD -->
  <g stroke="#243448" stroke-width="3" stroke-linecap="round">
    <line x1="604" y1="294" x2="596" y2="268"/>
    <line x1="672" y1="294" x2="665" y2="268"/>
    <line x1="744" y1="294" x2="737" y2="268"/>
    <line x1="816" y1="294" x2="809" y2="268"/>
    <line x1="888" y1="294" x2="881" y2="268"/>
    <line x1="930" y1="294" x2="924" y2="268"/>
  </g>
  <g stroke="#1a2838" stroke-width="1.5" opacity="0.55">
    <line x1="604" y1="282" x2="672" y2="275"/>
    <line x1="672" y1="282" x2="744" y2="276"/>
    <line x1="744" y1="282" x2="816" y2="275"/>
    <line x1="816" y1="282" x2="888" y2="276"/>
    <line x1="888" y1="282" x2="930" y2="280"/>
  </g>

  <!-- TRUSS POSTS — PAX -->
  <g stroke="#243448" stroke-width="3" stroke-linecap="round">
    <line x1="964"  y1="286" x2="956"  y2="258"/>
    <line x1="1044" y1="286" x2="1037" y2="258"/>
    <line x1="1124" y1="286" x2="1117" y2="258"/>
    <line x1="1204" y1="286" x2="1197" y2="258"/>
    <line x1="1284" y1="286" x2="1277" y2="258"/>
    <line x1="1350" y1="286" x2="1344" y2="258"/>
  </g>
  <g stroke="#1a2838" stroke-width="1.5" opacity="0.55">
    <line x1="964"  y1="274" x2="1044" y2="266"/>
    <line x1="1044" y1="274" x2="1124" y2="268"/>
    <line x1="1124" y1="274" x2="1204" y2="266"/>
    <line x1="1204" y1="274" x2="1284" y2="268"/>
    <line x1="1284" y1="274" x2="1350" y2="272"/>
  </g>

  <!-- SOLAR ARRAY — CMD -->
  <rect x="590" y="254" width="338" height="14" rx="3" fill="url(#pSolar)" stroke="#091428" stroke-width="1.5"/>
  <rect x="590" y="254" width="338" height="4"  rx="2" fill="white" opacity="0.05"/>
  <g stroke="#091428" stroke-width="0.7" opacity="0.9">
    <line x1="638" y1="254" x2="638" y2="268"/>
    <line x1="686" y1="254" x2="686" y2="268"/>
    <line x1="734" y1="254" x2="734" y2="268"/>
    <line x1="782" y1="254" x2="782" y2="268"/>
    <line x1="830" y1="254" x2="830" y2="268"/>
    <line x1="878" y1="254" x2="878" y2="268"/>
  </g>

  <!-- SOLAR ARRAY — PAX -->
  <rect x="946" y="244" width="406" height="14" rx="3" fill="url(#pSolar)" stroke="#091428" stroke-width="1.5"/>
  <rect x="946" y="244" width="406" height="4"  rx="2" fill="white" opacity="0.05"/>
  <g stroke="#091428" stroke-width="0.7" opacity="0.9">
    <line x1="998"  y1="244" x2="998"  y2="258"/>
    <line x1="1050" y1="244" x2="1050" y2="258"/>
    <line x1="1102" y1="244" x2="1102" y2="258"/>
    <line x1="1154" y1="244" x2="1154" y2="258"/>
    <line x1="1206" y1="244" x2="1206" y2="258"/>
    <line x1="1258" y1="244" x2="1258" y2="258"/>
    <line x1="1310" y1="244" x2="1310" y2="258"/>
  </g>

  <!-- SSSRA shade shadow on radiator -->
  <rect x="597" y="293" width="324" height="4" fill="#000" opacity="0.18" rx="2"/>
  <rect x="952" y="285" width="396" height="4" fill="#000" opacity="0.18" rx="2"/>

  <!-- ================================================ -->
  <!-- ANNOTATIONS — left side callouts                 -->
  <!-- ================================================ -->

  <!-- Solar array -->
  <line x1="592" y1="261" x2="480" y2="208" stroke="#4a88cc" stroke-width="1.2" stroke-dasharray="5,4"/>
  <polygon points="480,208 489,213 492,205" fill="#4a88cc"/>
  <text x="310" y="204" font-size="11" fill="#6aaaee" letter-spacing="1.2"
        font-family="Courier New, monospace">SOLAR ARRAY (PV)</text>
  <text x="310" y="219" font-size="9" fill="#4a88cc" opacity="0.8"
        font-family="Courier New, monospace">low-ε backside · power gen</text>

  <!-- Radiator -->
  <line x1="586" y1="301" x2="474" y2="262" stroke="#8aaccf" stroke-width="1.2" stroke-dasharray="5,4"/>
  <polygon points="474,262 484,265 481,256" fill="#8aaccf"/>
  <text x="310" y="258" font-size="11" fill="#aaccee" letter-spacing="1.2"
        font-family="Courier New, monospace">FLAT-PLATE RADIATOR</text>
  <text x="310" y="273" font-size="9" fill="#8aaccf" opacity="0.8"
        font-family="Courier New, monospace">roof-mounted · ε 0.88</text>

  <!-- SSSRA truss gap -->
  <line x1="596" y1="281" x2="474" y2="312" stroke="#4acc88" stroke-width="1.2" stroke-dasharray="5,4"/>
  <polygon points="474,312 485,310 482,318" fill="#4acc88"/>
  <text x="310" y="308" font-size="11" fill="#6aeebb" letter-spacing="1.2"
        font-family="Courier New, monospace">SSSRA TRUSS GAP</text>
  <text x="310" y="323" font-size="9" fill="#4acc88" opacity="0.8"
        font-family="Courier New, monospace">~0.4 m clearance</text>

  <!-- Tread -->
  <line x1="632" y1="488" x2="516" y2="528" stroke="#8a9aaa" stroke-width="1.2" stroke-dasharray="5,4"/>
  <polygon points="516,528 526,524 524,516" fill="#8a9aaa"/>
  <text x="380" y="524" font-size="11" fill="#aabccc" letter-spacing="1.2"
        font-family="Courier New, monospace">ALL-METAL TREADS</text>
  <text x="380" y="539" font-size="9" fill="#8a9aaa" opacity="0.8"
        font-family="Courier New, monospace">active terrain-following susp.</text>

  <!-- CMD wheelbase dimension line -->
  <line x1="632" y1="510" x2="860" y2="510" stroke="#4a6888" stroke-width="1" stroke-dasharray="4,3" opacity="0.7"/>
  <line x1="632" y1="505" x2="632" y2="515" stroke="#4a6888" stroke-width="1.5" opacity="0.7"/>
  <line x1="860" y1="505" x2="860" y2="515" stroke="#4a6888" stroke-width="1.5" opacity="0.7"/>
  <text x="746" y="528" font-size="9" fill="#4a7898" letter-spacing="1" text-anchor="middle"
        font-family="Courier New, monospace" opacity="0.85">CMD WHEELBASE  6.5 m</text>

  <!-- Height dimension line -->
  <line x1="524" y1="254" x2="524" y2="490" stroke="#4a6888" stroke-width="1" stroke-dasharray="4,3" opacity="0.6"/>
  <line x1="519" y1="254" x2="529" y2="254" stroke="#4a6888" stroke-width="1.5" opacity="0.6"/>
  <line x1="519" y1="490" x2="529" y2="490" stroke="#4a6888" stroke-width="1.5" opacity="0.6"/>
  <text x="508" y="374" font-size="9" fill="#4a7898" text-anchor="middle" opacity="0.8"
        font-family="Courier New, monospace" transform="rotate(-90,508,374)">~3.9 m incl. SSSRA</text>

  <!-- ================================================ -->
  <!-- CAPTION OVERLAY — bottom of frame, inside SVG    -->
  <!-- ================================================ -->
  <!-- Gradient fade at bottom to seat caption -->
  <defs>
    <linearGradient id="gCaptionFade" x1="0" y1="0" x2="0" y2="1">
      <stop offset="0%" stop-color="#000000" stop-opacity="0"/>
      <stop offset="100%" stop-color="#000000" stop-opacity="0.72"/>
    </linearGradient>
  </defs>
  <rect x="0" y="620" width="1400" height="168" fill="url(#gCaptionFade)"/>

  <!-- Caption text -->
  <text x="700" y="688" font-size="28" fill="#cce0f5" font-weight="bold" letter-spacing="5"
        text-anchor="middle" font-family="Courier New, monospace">AEGIS-CLASS ROVER</text>
  <text x="700" y="714" font-size="14" fill="#7aaac8" letter-spacing="3"
        text-anchor="middle" font-family="Courier New, monospace">PRESSURIZED LUNAR MOBILITY PLATFORM  ·  SSSRA THERMAL ARCHITECTURE</text>
  <text x="700" y="735" font-size="12" fill="#4a6a88" letter-spacing="2"
        text-anchor="middle" font-family="Courier New, monospace">30–60 DAY ENDURANCE  ·  2–24 CREW  ·  CMD 10 m · PAX 24 m</text>

  <!-- Drawing ref + corner marks -->
  <g stroke="#1a3050" stroke-width="1" opacity="0.45">
    <line x1="0"    y1="18"  x2="18"   y2="18"/><line x1="18"  y1="0"   x2="18"   y2="18"/>
    <line x1="1382" y1="18"  x2="1400" y2="18"/><line x1="1382" y1="0"   x2="1382" y2="18"/>
    <line x1="0"    y1="770" x2="18"   y2="770"/><line x1="18"  y1="770" x2="18"   y2="788"/>
    <line x1="1382" y1="770" x2="1400" y2="770"/><line x1="1382" y1="770" x2="1382" y2="788"/>
  </g>
  <text x="22" y="14" font-size="9" fill="#1a3050" font-family="Courier New, monospace"
        opacity="0.6">AEG-ROV-EXT-001  REV C</text>
  <text x="1378" y="14" font-size="9" fill="#1a3050" font-family="Courier New, monospace"
        opacity="0.6" text-anchor="end">AEGIS SYSTEMS 2026</text>

</svg>
