<svg xmlns="http://www.w3.org/2000/svg" viewBox="0 0 1000 640" role="img" aria-labelledby="title desc">
  <title id="title">Aegis Station hub/ring boundary — schematic cross-section</title>
  <desc id="desc">Schematic showing how crew, cargo, power, data and thermal flows cross between the despun hub and a rotating habitat ring without any continuous rotary mechanical seal.</desc>
  <defs>
    <marker id="aCyan" viewBox="0 0 10 10" refX="8" refY="5" markerWidth="7" markerHeight="7" orient="auto-start-reverse">
      <path d="M0,0 L10,5 L0,10 z" fill="#4dd0e1"/>
    </marker>
    <style>
      text{font-family:"Open Sans",system-ui,-apple-system,"Segoe UI",Roboto,Arial,sans-serif;fill:#d7d7d7;}
      .hd{font-weight:700;fill:#f0f0f0;letter-spacing:.6px;}
      .sub{fill:#9a9a9a;}
      .acc{fill:#4dd0e1;}
      .accb{fill:#4dd0e1;font-weight:700;letter-spacing:.6px;}
      .warn{fill:#d3756a;font-weight:700;letter-spacing:.6px;}
      .struct{fill:#161616;}
      .sStill{stroke:#8f8f8f;stroke-width:2;}
      .sRot{stroke:#4dd0e1;stroke-width:2;}
      .axis{stroke:#6a6a6a;stroke-dasharray:6 6;stroke-width:1.5;}
      .bound{stroke:#4dd0e1;stroke-dasharray:5 8;stroke-width:1.5;opacity:.75;}
      .lead{stroke:#4dd0e1;stroke-width:2.5;fill:none;}
      .thin{stroke:#7d7d7d;stroke-width:1.5;fill:none;}
      .rad{stroke:#9a9a9a;stroke-width:2;fill:none;}
    </style>
  </defs>

  <!-- header -->
  <text class="hd" x="32" y="40" font-size="22">HUB / RING BOUNDARY</text>
  <text class="sub" x="33" y="64" font-size="13.5">Every flow crosses without a continuous rotary mechanical seal.</text>

  <!-- spin axis -->
  <line class="axis" x1="20" y1="350" x2="468" y2="350"/>
  <text class="sub" x="30" y="343" font-size="11" letter-spacing="1">SPIN AXIS</text>

  <!-- despun hub -->
  <rect class="struct sStill" x="96" y="240" width="236" height="220" rx="16"/>
  <text class="hd" x="214" y="346" font-size="17" text-anchor="middle">DESPUN HUB</text>
  <text class="sub" x="214" y="366" font-size="12.5" text-anchor="middle">non-rotating frame</text>

  <!-- rotating ring -->
  <rect class="struct sRot" x="612" y="135" width="288" height="430" rx="18"/>
  <text class="accb" x="756" y="170" font-size="17" text-anchor="middle">HABITAT RING</text>
  <text class="acc" x="756" y="190" font-size="12.5" text-anchor="middle">rotating &#183; 1 g at rim</text>
  <path class="lead" d="M 838 215 A 38 38 0 0 1 876 250" marker-end="url(#aCyan)"/>
  <text class="acc" x="845" y="232" font-size="11" text-anchor="end">spin</text>

  <!-- rotational boundary line -->
  <line class="bound" x1="472" y1="112" x2="472" y2="592"/>
  <text class="acc" x="472" y="108" font-size="10.5" text-anchor="middle" letter-spacing="1.5">ROTATIONAL BOUNDARY</text>

  <!-- ============ 1 · CREW & CARGO ============ -->
  <text class="accb" x="472" y="132" font-size="14" text-anchor="middle">1 &#183; CREW &amp; CARGO</text>
  <text class="sub" font-size="11" text-anchor="middle"><tspan x="472" y="149">cyclic pod transfer</tspan><tspan x="472" y="162">no sliding seal</tspan></text>
  <!-- despun magazine carousel -->
  <circle class="struct sStill" cx="408" cy="205" r="26"/>
  <circle cx="408" cy="184" r="4" fill="#8f8f8f"/>
  <circle cx="428" cy="199" r="4" fill="#8f8f8f"/>
  <circle cx="420" cy="223" r="4" fill="#8f8f8f"/>
  <circle cx="396" cy="223" r="4" fill="#8f8f8f"/>
  <circle cx="388" cy="199" r="4" fill="#8f8f8f"/>
  <text class="sub" x="408" y="250" font-size="10.5" text-anchor="middle">despun magazine</text>
  <!-- transit pod + transfer arrow -->
  <rect x="446" y="192" width="34" height="26" rx="6" class="struct sRot"/>
  <line class="lead" x1="448" y1="205" x2="604" y2="205" marker-end="url(#aCyan)"/>
  <!-- ring-face vestibule -->
  <rect x="612" y="185" width="42" height="40" rx="4" class="struct sRot"/>
  <text class="acc" font-size="10.5" text-anchor="middle"><tspan x="633" y="245">ring-face</tspan><tspan x="633" y="257">vestibule</tspan></text>

  <!-- ============ 2 · POWER ============ -->
  <text class="accb" x="472" y="284" font-size="14" text-anchor="middle">2 &#183; POWER</text>
  <text class="sub" font-size="11" text-anchor="middle"><tspan x="472" y="301">rotary transformer</tspan><tspan x="472" y="314">contactless inductive</tspan></text>
  <!-- coils with air gap across boundary -->
  <g class="sStill" fill="none">
    <path d="M452 326 h14 M452 334 h14 M452 342 h14"/>
  </g>
  <g class="sRot" fill="none">
    <path d="M478 326 h14 M478 334 h14 M478 342 h14"/>
  </g>
  <line class="bound" x1="472" y1="320" x2="472" y2="348"/>

  <!-- ============ 3 · DATA (on axis) ============ -->
  <path class="thin" d="M450 350 l-12 -7 v14 z" fill="#7d7d7d"/>
  <path class="sRot" d="M610 350 l12 -7 v14 z" fill="#4dd0e1"/>
  <line x1="450" y1="350" x2="610" y2="350" stroke="#4dd0e1" stroke-width="2" stroke-dasharray="3 5"/>
  <text class="accb" x="472" y="382" font-size="14" text-anchor="middle">3 &#183; DATA</text>
  <text class="sub" font-size="11" text-anchor="middle"><tspan x="472" y="399">on-axis free-space optical</tspan><tspan x="472" y="412">a still point on the axis</tspan></text>

  <!-- ============ 4 · THERMAL ============ -->
  <text class="warn" x="472" y="446" font-size="14" text-anchor="middle">4 &#183; THERMAL</text>
  <text class="sub" font-size="11" text-anchor="middle"><tspan x="472" y="463">rejected on each side</tspan><tspan x="472" y="476">does not cross</tspan></text>
  <!-- crossed-out arrow at boundary -->
  <line x1="452" y1="495" x2="492" y2="495" class="thin"/>
  <line x1="460" y1="486" x2="484" y2="504" stroke="#d3756a" stroke-width="2.5"/>
  <line x1="484" y1="486" x2="460" y2="504" stroke="#d3756a" stroke-width="2.5"/>

  <!-- hub radiators -->
  <line class="rad" x1="126" y1="472" x2="302" y2="472"/>
  <path class="rad" d="M146 472 v18 M186 472 v18 M226 472 v18 M266 472 v18 M296 472 v18"/>
  <text class="sub" x="214" y="506" font-size="10.5" text-anchor="middle">hub radiators</text>

  <!-- ring radiators -->
  <line class="rad" x1="648" y1="582" x2="864" y2="582"/>
  <path class="rad" d="M668 582 v-18 M708 582 v-18 M748 582 v-18 M788 582 v-18 M828 582 v-18 M858 582 v-18"/>
  <text class="sub" x="756" y="602" font-size="10.5" text-anchor="middle">ring radiators</text>

  <!-- ============ legend ============ -->
  <g font-size="11">
    <line x1="96" y1="624" x2="126" y2="624" stroke="#8f8f8f" stroke-width="2"/>
    <text class="sub" x="134" y="628">despun hub (fixed frame)</text>
    <line x1="330" y1="624" x2="360" y2="624" stroke="#4dd0e1" stroke-width="2"/>
    <text class="acc" x="368" y="628">rotating side / contactless or cyclic crossing</text>
    <line x1="724" y1="616" x2="744" y2="632" stroke="#d3756a" stroke-width="2.5"/>
    <line x1="744" y1="616" x2="724" y2="632" stroke="#d3756a" stroke-width="2.5"/>
    <text class="sub" x="754" y="628" fill="#d3756a">crossing eliminated</text>
  </g>
</svg>
