<svg xmlns="http://www.w3.org/2000/svg" viewBox="0 0 1000 640" role="img" aria-labelledby="title desc">
  <title id="title">Aegis Station hub/ring boundary — schematic cross-section</title>
  <desc id="desc">Schematic showing how crew, cargo, power, data and thermal flows cross between the despun hub and a rotating habitat ring without any continuous rotary mechanical seal.</desc>
  <defs>
    <marker id="aCyan" viewBox="0 0 10 10" refX="8" refY="5" markerWidth="7" markerHeight="7" orient="auto-start-reverse">
      <path d="M0,0 L10,5 L0,10 z" fill="#4dd0e1"/>
    </marker>
    <style>
      text{font-family:"Open Sans",system-ui,-apple-system,"Segoe UI",Roboto,Arial,sans-serif;fill:#d7d7d7;}
      .hd{font-weight:700;fill:#f0f0f0;letter-spacing:.6px;}
      .sub{fill:#9a9a9a;}
      .acc{fill:#4dd0e1;}
      .accb{fill:#4dd0e1;font-weight:700;letter-spacing:.6px;}
      .warn{fill:#d3756a;font-weight:700;letter-spacing:.6px;}
      .struct{fill:#161616;}
      .sStill{stroke:#8f8f8f;stroke-width:2;}
      .sRot{stroke:#4dd0e1;stroke-width:2;}
      .axis{stroke:#6a6a6a;stroke-dasharray:6 6;stroke-width:1.5;}
      .bound{stroke:#4dd0e1;stroke-dasharray:5 8;stroke-width:1.5;opacity:.75;}
      .lead{stroke:#4dd0e1;stroke-width:2.5;fill:none;}
      .thin{stroke:#7d7d7d;stroke-width:1.5;fill:none;}
      .rad{stroke:#9a9a9a;stroke-width:2;fill:none;}
    </style>
  </defs>

  <!-- header -->
  <text class="hd" x="32" y="40" font-size="22">HUB / RING BOUNDARY</text>
  <text class="sub" x="33" y="64" font-size="13.5">Every flow crosses without a continuous rotary mechanical seal.</text>

  <!-- spin axis -->
  <line class="axis" x1="20" y1="350" x2="472" y2="350"/>
  <text class="sub" x="34" y="343" font-size="11" letter-spacing="1">STATION SPIN AXIS</text>

  <!-- despun hub -->
  <rect class="struct sStill" x="120" y="235" width="250" height="230" rx="16"/>
  <text class="hd" x="245" y="346" font-size="17" text-anchor="middle">DESPUN HUB</text>
  <text class="sub" x="245" y="366" font-size="12.5" text-anchor="middle">non-rotating frame</text>

  <!-- rotating ring -->
  <rect class="struct sRot" x="575" y="135" width="290" height="430" rx="18"/>
  <text class="accb" x="720" y="170" font-size="17" text-anchor="middle">HABITAT RING</text>
  <text class="acc" x="720" y="190" font-size="12.5" text-anchor="middle">rotating &#183; 1 g at rim</text>
  <!-- rotation arc -->
  <path class="lead" d="M 800 215 A 38 38 0 0 1 838 250" marker-end="url(#aCyan)"/>
  <text class="acc" x="845" y="232" font-size="11">spin</text>

  <!-- rotational boundary line -->
  <line class="bound" x1="472" y1="112" x2="472" y2="592"/>
  <text class="acc" x="472" y="108" font-size="10.5" text-anchor="middle" letter-spacing="1.5">ROTATIONAL BOUNDARY</text>

  <!-- ============ 1 · CREW & CARGO ============ -->
  <text class="accb" x="470" y="138" font-size="14" text-anchor="middle">1 &#183; CREW &amp; CARGO</text>
  <text class="sub" x="470" y="155" font-size="11" text-anchor="middle">cyclic pod transfer &#8212; no sliding seal</text>
  <!-- despun magazine carousel -->
  <circle class="struct sStill" cx="418" cy="200" r="27"/>
  <circle cx="418" cy="177" r="4" fill="#8f8f8f"/>
  <circle cx="440" cy="193" r="4" fill="#8f8f8f"/>
  <circle cx="432" cy="219" r="4" fill="#8f8f8f"/>
  <circle cx="404" cy="219" r="4" fill="#8f8f8f"/>
  <circle cx="396" cy="193" r="4" fill="#8f8f8f"/>
  <text class="sub" x="402" y="246" font-size="10.5" text-anchor="middle">despun magazine</text>
  <!-- transit pod + transfer arrow -->
  <rect x="452" y="187" width="34" height="26" rx="6" class="struct sRot"/>
  <line class="lead" x1="455" y1="200" x2="566" y2="200" marker-end="url(#aCyan)"/>
  <!-- ring-face vestibule -->
  <rect x="575" y="180" width="42" height="40" rx="4" class="struct sRot"/>
  <text class="acc" x="640" y="197" font-size="10.5">ring-face</text>
  <text class="acc" x="640" y="210" font-size="10.5">vestibule</text>

  <!-- ============ 2 · POWER ============ -->
  <text class="accb" x="470" y="282" font-size="14" text-anchor="middle">2 &#183; POWER</text>
  <text class="sub" x="470" y="299" font-size="11" text-anchor="middle">rotary transformer &#183; contactless inductive</text>
  <!-- coils with air gap across boundary -->
  <g class="sStill" fill="none">
    <path d="M452 312 h14 M452 320 h14 M452 328 h14"/>
  </g>
  <g class="sRot" fill="none">
    <path d="M478 312 h14 M478 320 h14 M478 328 h14"/>
  </g>
  <line class="bound" x1="472" y1="306" x2="472" y2="334"/>

  <!-- ============ 3 · DATA (on axis) ============ -->
  <path class="thin" d="M448 350 l-12 -7 v14 z" fill="#7d7d7d"/>
  <path class="sRot" d="M576 350 l12 -7 v14 z" fill="#4dd0e1"/>
  <line x1="448" y1="350" x2="576" y2="350" stroke="#4dd0e1" stroke-width="2" stroke-dasharray="3 5"/>
  <text class="accb" x="470" y="382" font-size="14" text-anchor="middle">3 &#183; DATA</text>
  <text class="sub" x="470" y="399" font-size="11" text-anchor="middle">on-axis free-space optical &#183; a still point on the axis</text>

  <!-- ============ 4 · THERMAL ============ -->
  <text class="warn" x="470" y="440" font-size="14" text-anchor="middle">4 &#183; THERMAL</text>
  <text class="sub" x="470" y="457" font-size="11" text-anchor="middle">rejected on each side &#8212; does not cross</text>
  <!-- crossed-out arrow at boundary -->
  <line x1="450" y1="478" x2="494" y2="478" class="thin"/>
  <line x1="458" y1="468" x2="486" y2="488" stroke="#d3756a" stroke-width="2.5"/>
  <line x1="486" y1="468" x2="458" y2="488" stroke="#d3756a" stroke-width="2.5"/>

  <!-- hub radiators -->
  <line class="rad" x1="150" y1="478" x2="340" y2="478"/>
  <path class="rad" d="M170 478 v18 M210 478 v18 M250 478 v18 M290 478 v18 M330 478 v18"/>
  <text class="sub" x="245" y="512" font-size="10.5" text-anchor="middle">hub radiators</text>

  <!-- ring radiators -->
  <line class="rad" x1="610" y1="582" x2="830" y2="582"/>
  <path class="rad" d="M630 582 v-18 M670 582 v-18 M710 582 v-18 M750 582 v-18 M790 582 v-18 M820 582 v-18"/>
  <text class="sub" x="720" y="602" font-size="10.5" text-anchor="middle">ring radiators</text>

  <!-- ============ legend ============ -->
  <g font-size="11">
    <line x1="120" y1="618" x2="150" y2="618" stroke="#8f8f8f" stroke-width="2"/>
    <text class="sub" x="158" y="622">despun hub (fixed frame)</text>
    <line x1="360" y1="618" x2="390" y2="618" stroke="#4dd0e1" stroke-width="2"/>
    <text class="acc" x="398" y="622">rotating side / contactless or cyclic crossing</text>
    <line x1="742" y1="610" x2="762" y2="626" stroke="#d3756a" stroke-width="2.5"/>
    <line x1="762" y1="610" x2="742" y2="626" stroke="#d3756a" stroke-width="2.5"/>
    <text class="warn" x="772" y="622" font-weight="400" fill="#d3756a">crossing eliminated</text>
  </g>
</svg>
