<svg xmlns="http://www.w3.org/2000/svg" viewBox="0 0 1000 820" width="1000" height="820" font-family="'Courier New', monospace">
  <defs>
    <linearGradient id="skyGrad" x1="0" y1="0" x2="0" y2="1">
      <stop offset="0%" stop-color="#000005"/>
      <stop offset="55%" stop-color="#080818"/>
      <stop offset="100%" stop-color="#14142a"/>
    </linearGradient>
    <linearGradient id="regolithGrad" x1="0" y1="0" x2="0" y2="1">
      <stop offset="0%" stop-color="#a0a08e"/>
      <stop offset="100%" stop-color="#6a6a58"/>
    </linearGradient>
    <linearGradient id="bodyGrad" x1="0" y1="0" x2="1" y2="0">
      <stop offset="0%" stop-color="#a8b0c0"/>
      <stop offset="35%" stop-color="#d8e0f0"/>
      <stop offset="65%" stop-color="#c0c8d8"/>
      <stop offset="100%" stop-color="#848ca0"/>
    </linearGradient>
    <linearGradient id="hullDark" x1="0" y1="0" x2="1" y2="0">
      <stop offset="0%" stop-color="#606878"/>
      <stop offset="50%" stop-color="#909aaa"/>
      <stop offset="100%" stop-color="#505868"/>
    </linearGradient>
    <linearGradient id="engineGrad" x1="0" y1="0" x2="0" y2="1">
      <stop offset="0%" stop-color="#707888"/>
      <stop offset="100%" stop-color="#303848"/>
    </linearGradient>
    <linearGradient id="legGrad" x1="0" y1="0" x2="1" y2="0">
      <stop offset="0%" stop-color="#606878"/>
      <stop offset="50%" stop-color="#a0a8b8"/>
      <stop offset="100%" stop-color="#505868"/>
    </linearGradient>
    <linearGradient id="radiatorGrad" x1="0" y1="0" x2="0" y2="1">
      <stop offset="0%" stop-color="#c8d8e8"/>
      <stop offset="30%" stop-color="#e0eaf5"/>
      <stop offset="70%" stop-color="#d0daea"/>
      <stop offset="100%" stop-color="#a0b0c0"/>
    </linearGradient>
    <pattern id="radFinLines" width="14" height="4" patternUnits="userSpaceOnUse">
      <rect width="14" height="4" fill="none"/>
      <line x1="0" y1="2" x2="14" y2="2" stroke="#9ab0c0" stroke-width="0.7" opacity="0.8"/>
    </pattern>
    <pattern id="pvCells" width="22" height="22" patternUnits="userSpaceOnUse">
      <rect width="22" height="22" fill="#1e3a9e"/>
      <rect x="1" y="1" width="9" height="9" fill="#182e88" opacity="0.8"/>
      <rect x="12" y="1" width="9" height="9" fill="#182e88" opacity="0.8"/>
      <rect x="1" y="12" width="9" height="9" fill="#182e88" opacity="0.8"/>
      <rect x="12" y="12" width="9" height="9" fill="#182e88" opacity="0.8"/>
      <line x1="0" y1="11" x2="22" y2="11" stroke="#3a5acc" stroke-width="0.8"/>
      <line x1="11" y1="0" x2="11" y2="22" stroke="#3a5acc" stroke-width="0.8"/>
    </pattern>
    <pattern id="hatch" width="6" height="6" patternUnits="userSpaceOnUse" patternTransform="rotate(45)">
      <line x1="0" y1="0" x2="0" y2="6" stroke="#9098a8" stroke-width="0.5" opacity="0.4"/>
    </pattern>
    <filter id="glow">
      <feGaussianBlur stdDeviation="2.5" result="coloredBlur"/>
      <feMerge><feMergeNode in="coloredBlur"/><feMergeNode in="SourceGraphic"/></feMerge>
    </filter>
    <filter id="softShadow">
      <feDropShadow dx="2" dy="3" stdDeviation="4" flood-opacity="0.4"/>
    </filter>
    <radialGradient id="thermalGlow" cx="50%" cy="100%" r="70%">
      <stop offset="0%" stop-color="#ff7700" stop-opacity="0.10"/>
      <stop offset="100%" stop-color="#ff7700" stop-opacity="0"/>
    </radialGradient>
  </defs>

  <!-- Background -->
  <rect width="1000" height="820" fill="url(#skyGrad)"/>

  <!-- Stars -->
  <g fill="white">
    <circle cx="45" cy="28" r="0.8" opacity="0.9"/><circle cx="110" cy="14" r="1.1" opacity="0.8"/>
    <circle cx="195" cy="42" r="0.7" opacity="0.7"/><circle cx="285" cy="18" r="1.0" opacity="0.9"/>
    <circle cx="370" cy="33" r="0.6" opacity="0.8"/><circle cx="445" cy="9" r="1.2" opacity="0.7"/>
    <circle cx="530" cy="25" r="0.9" opacity="0.9"/><circle cx="625" cy="16" r="0.7" opacity="0.8"/>
    <circle cx="710" cy="38" r="1.1" opacity="0.7"/><circle cx="800" cy="11" r="0.8" opacity="0.9"/>
    <circle cx="865" cy="33" r="1.0" opacity="0.8"/><circle cx="940" cy="22" r="0.7" opacity="0.7"/>
    <circle cx="70" cy="78" r="0.6" opacity="0.7"/><circle cx="155" cy="92" r="0.8" opacity="0.8"/>
    <circle cx="415" cy="82" r="0.9" opacity="0.8"/><circle cx="590" cy="62" r="0.7" opacity="0.7"/>
    <circle cx="695" cy="88" r="1.0" opacity="0.8"/><circle cx="795" cy="72" r="0.6" opacity="0.9"/>
    <circle cx="30" cy="125" r="0.7" opacity="0.6"/><circle cx="490" cy="118" r="0.9" opacity="0.8"/>
    <circle cx="740" cy="132" r="0.8" opacity="0.7"/><circle cx="850" cy="108" r="0.6" opacity="0.8"/>
  </g>

  <!-- Background terrain -->
  <ellipse cx="140" cy="590" rx="190" ry="55" fill="#606050" opacity="0.55"/>
  <ellipse cx="820" cy="585" rx="175" ry="52" fill="#606050" opacity="0.55"/>
  <ellipse cx="500" cy="595" rx="290" ry="42" fill="#707060" opacity="0.38"/>

  <!-- Lunar ground -->
  <rect x="0" y="618" width="1000" height="202" fill="url(#regolithGrad)"/>
  <ellipse cx="75" cy="628" rx="18" ry="7" fill="#808070" opacity="0.7"/>
  <ellipse cx="175" cy="634" rx="11" ry="5" fill="#909080" opacity="0.6"/>
  <ellipse cx="700" cy="630" rx="19" ry="8" fill="#808070" opacity="0.7"/>
  <ellipse cx="810" cy="626" rx="13" ry="5" fill="#909080" opacity="0.6"/>
  <ellipse cx="840" cy="638" rx="8" ry="3" fill="#787868" opacity="0.8"/>
  <ellipse cx="105" cy="640" rx="6" ry="3" fill="#787868" opacity="0.7"/>
  <ellipse cx="758" cy="643" rx="9" ry="4" fill="#808070" opacity="0.6"/>

  <!-- ===== LANDING LEGS ===== -->
  <!-- Rear legs -->
  <line x1="495" y1="548" x2="648" y2="614" stroke="#505868" stroke-width="3.5"/>
  <line x1="505" y1="548" x2="658" y2="614" stroke="#707888" stroke-width="1.5"/>
  <line x1="515" y1="568" x2="634" y2="610" stroke="#505868" stroke-width="1.5"/>
  <ellipse cx="655" cy="617" rx="20" ry="6" fill="#505868" stroke="#707888" stroke-width="1.5"/>

  <line x1="405" y1="548" x2="252" y2="614" stroke="#505868" stroke-width="3.5"/>
  <line x1="395" y1="548" x2="242" y2="614" stroke="#707888" stroke-width="1.5"/>
  <line x1="388" y1="568" x2="265" y2="610" stroke="#505868" stroke-width="1.5"/>
  <ellipse cx="245" cy="617" rx="20" ry="6" fill="#505868" stroke="#707888" stroke-width="1.5"/>

  <!-- Front legs -->
  <line x1="515" y1="558" x2="692" y2="620" stroke="#606878" stroke-width="5"/>
  <line x1="525" y1="558" x2="702" y2="620" stroke="#8898a8" stroke-width="2"/>
  <line x1="536" y1="575" x2="680" y2="616" stroke="#606878" stroke-width="2"/>
  <ellipse cx="700" cy="623" rx="24" ry="8" fill="#505868" stroke="#8090a0" stroke-width="2"/>

  <line x1="385" y1="558" x2="208" y2="620" stroke="#606878" stroke-width="5"/>
  <line x1="375" y1="558" x2="198" y2="620" stroke="#8898a8" stroke-width="2"/>
  <line x1="366" y1="575" x2="222" y2="616" stroke="#606878" stroke-width="2"/>
  <ellipse cx="200" cy="623" rx="24" ry="8" fill="#505868" stroke="#8090a0" stroke-width="2"/>

  <!-- Center strut -->
  <line x1="450" y1="560" x2="450" y2="620" stroke="#606878" stroke-width="6"/>
  <line x1="453" y1="560" x2="453" y2="620" stroke="#9aaaba" stroke-width="2"/>
  <ellipse cx="450" cy="623" rx="26" ry="8" fill="#505868" stroke="#8090a0" stroke-width="2"/>

  <!-- ===== ENGINE NOZZLE ===== -->
  <path d="M413,560 Q408,582 398,604 L502,604 Q492,582 487,560 Z" fill="url(#engineGrad)" stroke="#303848" stroke-width="1.5"/>
  <ellipse cx="450" cy="604" rx="52" ry="11" fill="#252e3c"/>
  <path d="M416,568 Q450,565 484,568" fill="none" stroke="#808898" stroke-width="1" opacity="0.6"/>
  <path d="M410,578 Q450,575 490,578" fill="none" stroke="#808898" stroke-width="1" opacity="0.6"/>
  <path d="M406,590 Q450,587 494,590" fill="none" stroke="#808898" stroke-width="1" opacity="0.6"/>

  <!-- ===== LOWER PROPELLANT TANK ===== -->
  <path d="M358,532 Q353,555 358,560 L542,560 Q547,555 542,532 Z" fill="url(#hullDark)" stroke="#505868" stroke-width="1.5"/>
  <line x1="360" y1="538" x2="540" y2="538" stroke="#808898" stroke-width="1.5" opacity="0.7"/>
  <line x1="358" y1="547" x2="542" y2="547" stroke="#808898" stroke-width="1.5" opacity="0.7"/>
  <line x1="358" y1="556" x2="542" y2="556" stroke="#808898" stroke-width="1.5" opacity="0.7"/>
  <rect x="360" y="534" width="180" height="24" fill="url(#hatch)" opacity="0.5"/>

  <!-- ===== MAIN CABIN BODY ===== -->
  <rect x="348" y="368" width="204" height="168" rx="8" fill="url(#bodyGrad)" stroke="#708090" stroke-width="2" filter="url(#softShadow)"/>
  <line x1="350" y1="398" x2="550" y2="398" stroke="#8090a0" stroke-width="0.8" opacity="0.5"/>
  <line x1="350" y1="428" x2="550" y2="428" stroke="#8090a0" stroke-width="0.8" opacity="0.5"/>
  <line x1="350" y1="458" x2="550" y2="458" stroke="#8090a0" stroke-width="0.8" opacity="0.5"/>
  <line x1="350" y1="488" x2="550" y2="488" stroke="#8090a0" stroke-width="0.8" opacity="0.5"/>
  <line x1="350" y1="518" x2="550" y2="518" stroke="#8090a0" stroke-width="0.8" opacity="0.5"/>
  <line x1="388" y1="370" x2="388" y2="534" stroke="#8090a0" stroke-width="0.7" opacity="0.35"/>
  <line x1="450" y1="370" x2="450" y2="534" stroke="#8090a0" stroke-width="0.7" opacity="0.35"/>
  <line x1="512" y1="370" x2="512" y2="534" stroke="#8090a0" stroke-width="0.7" opacity="0.35"/>

  <!-- Separation ring -->
  <rect x="346" y="528" width="208" height="10" rx="2" fill="#505868" stroke="#303848" stroke-width="1.5"/>

  <!-- ===== WINDOWS ===== -->
  <rect x="360" y="378" width="76" height="56" rx="5" fill="#182838" stroke="#90abb0" stroke-width="2"/>
  <rect x="362" y="380" width="72" height="52" rx="4" fill="#0c1825" stroke="#607080" stroke-width="1"/>
  <path d="M364,384 L378,384 L368,428 L358,428 Z" fill="white" opacity="0.07"/>
  <line x1="360" y1="406" x2="436" y2="406" stroke="#7a8898" stroke-width="1.5"/>
  <line x1="399" y1="378" x2="399" y2="434" stroke="#7a8898" stroke-width="1.5"/>

  <rect x="487" y="385" width="52" height="40" rx="4" fill="#182030" stroke="#8090a0" stroke-width="1.5"/>
  <rect x="490" y="388" width="46" height="34" rx="3" fill="#0c1522" stroke="#607080" stroke-width="1"/>
  <line x1="487" y1="405" x2="539" y2="405" stroke="#607080" stroke-width="1"/>

  <!-- Crew hatch -->
  <rect x="352" y="450" width="50" height="72" rx="5" fill="#a8b0c0" stroke="#505868" stroke-width="2"/>
  <rect x="355" y="453" width="44" height="66" rx="4" fill="#c0c8d8" stroke="#708090" stroke-width="1"/>
  <circle cx="393" cy="487" r="4" fill="#505868" stroke="#303848" stroke-width="1.5"/>
  <line x1="355" y1="470" x2="399" y2="470" stroke="#708090" stroke-width="1" opacity="0.6"/>
  <line x1="355" y1="490" x2="399" y2="490" stroke="#708090" stroke-width="1" opacity="0.6"/>
  <text x="376" y="515" text-anchor="middle" font-size="6.5" fill="#404858" letter-spacing="0.5">AIRLOCK</text>

  <!-- Cargo panel -->
  <rect x="498" y="455" width="50" height="62" rx="4" fill="#b0b8c8" stroke="#607080" stroke-width="1.5"/>
  <rect x="501" y="458" width="44" height="56" rx="3" fill="#b8c0d0" stroke="#708090" stroke-width="1"/>
  <circle cx="506" cy="462" r="2" fill="#505868"/><circle cx="543" cy="462" r="2" fill="#505868"/>
  <circle cx="506" cy="512" r="2" fill="#505868"/><circle cx="543" cy="512" r="2" fill="#505868"/>

  <!-- Status panel -->
  <rect x="422" y="465" width="56" height="48" rx="3" fill="#a0a8b8" stroke="#607080" stroke-width="1.5"/>
  <circle cx="432" cy="477" r="3" fill="#00ff44" opacity="0.85" filter="url(#glow)"/>
  <circle cx="443" cy="477" r="3" fill="#ff8800" opacity="0.85"/>
  <circle cx="454" cy="477" r="3" fill="#00aaff" opacity="0.85"/>
  <text x="450" y="507" text-anchor="middle" font-size="6" fill="#404858">SYS STATUS</text>

  <!-- ===== TRANSITION COLLAR ===== -->
  <rect x="346" y="360" width="208" height="12" rx="3" fill="#606878" stroke="#404858" stroke-width="1.5"/>

  <!-- ===== FLAT ROOF PLATE ===== -->
  <rect x="344" y="334" width="212" height="28" rx="3" fill="#8898a8" stroke="#505868" stroke-width="2"/>
  <line x1="346" y1="344" x2="554" y2="344" stroke="#607080" stroke-width="1" opacity="0.6"/>
  <line x1="346" y1="353" x2="554" y2="353" stroke="#607080" stroke-width="1" opacity="0.6"/>
  <circle cx="360" cy="338" r="2.5" fill="#505868"/><circle cx="395" cy="338" r="2.5" fill="#505868"/>
  <circle cx="430" cy="338" r="2.5" fill="#505868"/><circle cx="465" cy="338" r="2.5" fill="#505868"/>
  <circle cx="500" cy="338" r="2.5" fill="#505868"/><circle cx="535" cy="338" r="2.5" fill="#505868"/>
  <rect x="344" y="331" width="212" height="5" rx="1" fill="#505868" stroke="#303848" stroke-width="1"/>

  <!-- ========================================================= -->
  <!-- ===== SSSRA: STACKED SOLAR-SHADE RADIATOR ARCHITECTURE ===== -->
  <!-- ========================================================= -->

  <!-- === LAYER 1: FLAT-PLATE RADIATOR — mounted on roof === -->
  <!-- Sits directly on roof; faces upward (cold side to space) -->
  <rect x="348" y="308" width="204" height="26" rx="2" fill="url(#radiatorGrad)" stroke="#6090a8" stroke-width="2"/>
  <!-- Internal heat pipe / fin channel surface detail -->
  <rect x="350" y="310" width="200" height="22" fill="url(#radFinLines)" opacity="1"/>
  <!-- Vertical fin channels -->
  <line x1="368" y1="310" x2="368" y2="334" stroke="#90b0c8" stroke-width="1.2" opacity="0.6"/>
  <line x1="386" y1="310" x2="386" y2="334" stroke="#90b0c8" stroke-width="1.2" opacity="0.6"/>
  <line x1="404" y1="310" x2="404" y2="334" stroke="#90b0c8" stroke-width="1.2" opacity="0.6"/>
  <line x1="422" y1="310" x2="422" y2="334" stroke="#90b0c8" stroke-width="1.2" opacity="0.6"/>
  <line x1="440" y1="310" x2="440" y2="334" stroke="#90b0c8" stroke-width="1.2" opacity="0.6"/>
  <line x1="458" y1="310" x2="458" y2="334" stroke="#90b0c8" stroke-width="1.2" opacity="0.6"/>
  <line x1="476" y1="310" x2="476" y2="334" stroke="#90b0c8" stroke-width="1.2" opacity="0.6"/>
  <line x1="494" y1="310" x2="494" y2="334" stroke="#90b0c8" stroke-width="1.2" opacity="0.6"/>
  <line x1="512" y1="310" x2="512" y2="334" stroke="#90b0c8" stroke-width="1.2" opacity="0.6"/>
  <line x1="530" y1="310" x2="530" y2="334" stroke="#90b0c8" stroke-width="1.2" opacity="0.6"/>
  <!-- Top/bottom manifold bars -->
  <line x1="350" y1="311" x2="550" y2="311" stroke="#88aabe" stroke-width="2.5" opacity="0.8"/>
  <line x1="350" y1="332" x2="550" y2="332" stroke="#88aabe" stroke-width="2.5" opacity="0.8"/>
  <!-- Subtle IR thermal emission glow upward from radiator -->
  <rect x="350" y="296" width="200" height="14" fill="url(#thermalGlow)" opacity="0.7"/>
  <!-- Radiator label (small, embedded) -->
  <text x="450" y="324" text-anchor="middle" font-size="7" fill="#3a5068" font-weight="bold" letter-spacing="1.5">RADIATOR PLATE</text>

  <!-- === STANDOFF POSTS: 4 posts — thermal isolation gap between layers === -->
  <!-- These physically separate PV array from radiator surface -->
  <!-- Left standoffs -->
  <rect x="357" y="278" width="8" height="30" rx="1" fill="#6a7888" stroke="#4a5868" stroke-width="1.2"/>
  <rect x="354" y="274" width="14" height="6" rx="1" fill="#586878" stroke="#3a4858" stroke-width="1.2"/>
  <rect x="354" y="307" width="14" height="4" rx="1" fill="#586878" stroke="#3a4858" stroke-width="1"/>
  <!-- Right standoffs -->
  <rect x="535" y="278" width="8" height="30" rx="1" fill="#6a7888" stroke="#4a5868" stroke-width="1.2"/>
  <rect x="532" y="274" width="14" height="6" rx="1" fill="#586878" stroke="#3a4858" stroke-width="1.2"/>
  <rect x="532" y="307" width="14" height="4" rx="1" fill="#586878" stroke="#3a4858" stroke-width="1"/>
  <!-- Inner standoffs (visible as shorter lines) -->
  <line x1="380" y1="278" x2="380" y2="308" stroke="#586878" stroke-width="4" stroke-linecap="round" opacity="0.7"/>
  <line x1="520" y1="278" x2="520" y2="308" stroke="#586878" stroke-width="4" stroke-linecap="round" opacity="0.7"/>

  <!-- === AIR/VACUUM GAP — the key shading space === -->
  <!-- Shadow cast by solar panel downward onto radiator surface -->
  <!-- This is the functional core of SSSRA: PV blocks direct solar flux reaching radiator -->
  <rect x="360" y="309" width="180" height="20" fill="#283848" opacity="0.18" rx="1"/>

  <!-- === LAYER 2: SOLAR PANEL ARRAY (elevated, stacked above radiator) === -->
  <!-- Main PV frame -->
  <rect x="352" y="252" width="196" height="26" rx="2" fill="#182050" stroke="#2a4090" stroke-width="2"/>
  <!-- PV cell texture -->
  <rect x="354" y="254" width="192" height="22" fill="url(#pvCells)"/>
  <!-- Panel segment frames (3 zones) -->
  <line x1="418" y1="252" x2="418" y2="278" stroke="#1a3080" stroke-width="2.5"/>
  <line x1="484" y1="252" x2="484" y2="278" stroke="#1a3080" stroke-width="2.5"/>
  <!-- Array outer frame highlight -->
  <rect x="352" y="252" width="196" height="4" fill="#2a50cc" opacity="0.25" rx="1"/>
  <!-- PV label -->
  <text x="450" y="268" text-anchor="middle" font-size="7" fill="#88aaff" font-weight="bold" letter-spacing="1.5">PHOTOVOLTAIC ARRAY</text>

  <!-- === SUN RAYS — showing solar flux blocked by PV, not reaching radiator === -->
  <!-- Sun position upper-right -->
  <circle cx="820" cy="95" r="22" fill="#ffe080" opacity="0.18"/>
  <circle cx="820" cy="95" r="14" fill="#ffee88" opacity="0.25"/>
  <circle cx="820" cy="95" r="8" fill="#ffff99" opacity="0.4"/>
  <!-- Sun rays -->
  <line x1="820" y1="68" x2="820" y2="56" stroke="#ffee88" stroke-width="1.5" opacity="0.4"/>
  <line x1="843" y1="72" x2="852" y2="62" stroke="#ffee88" stroke-width="1.5" opacity="0.4"/>
  <line x1="847" y1="95" x2="859" y2="95" stroke="#ffee88" stroke-width="1.5" opacity="0.4"/>
  <line x1="797" y1="72" x2="788" y2="62" stroke="#ffee88" stroke-width="1.5" opacity="0.4"/>

  <!-- Solar flux arrows hitting PV surface (absorbed for power) -->
  <line x1="750" y1="160" x2="650" y2="254" stroke="#ffdd44" stroke-width="1.5" stroke-dasharray="5,3" opacity="0.45"/>
  <polygon points="650,254 657,244 660,257" fill="#ffdd44" opacity="0.45"/>
  <line x1="780" y1="155" x2="700" y2="254" stroke="#ffdd44" stroke-width="1.5" stroke-dasharray="5,3" opacity="0.4"/>
  <polygon points="700,254 707,244 710,257" fill="#ffdd44" opacity="0.4"/>
  <line x1="720" y1="165" x2="590" y2="254" stroke="#ffdd44" stroke-width="1.5" stroke-dasharray="5,3" opacity="0.35"/>
  <polygon points="590,254 597,244 600,257" fill="#ffdd44" opacity="0.35"/>
  <!-- "ABSORBED" label -->
  <text x="695" y="218" font-size="8" fill="#ffdd44" opacity="0.6" transform="rotate(-35,695,218)">ABSORBED → POWER</text>

  <!-- Blocked flux arrows (show that PV shades radiator, flux doesn't reach radiator) -->
  <!-- X marks on radiator showing blocked flux -->
  <text x="395" y="322" font-size="9" fill="#ff6644" opacity="0.4" font-weight="bold">✕</text>
  <text x="430" y="322" font-size="9" fill="#ff6644" opacity="0.4" font-weight="bold">✕</text>
  <text x="465" y="322" font-size="9" fill="#ff6644" opacity="0.4" font-weight="bold">✕</text>
  <text x="500" y="322" font-size="9" fill="#ff6644" opacity="0.4" font-weight="bold">✕</text>

  <!-- Comms antennas (non-SSSRA roof items) -->
  <line x1="505" y1="252" x2="505" y2="232" stroke="#8898a8" stroke-width="2"/>
  <line x1="498" y1="238" x2="512" y2="238" stroke="#8898a8" stroke-width="1.5"/>
  <line x1="500" y1="234" x2="510" y2="234" stroke="#8898a8" stroke-width="1"/>
  <line x1="400" y1="252" x2="400" y2="237" stroke="#8898a8" stroke-width="1.5"/>
  <circle cx="400" cy="235" r="3" fill="#7888a0" stroke="#506070" stroke-width="1"/>

  <!-- ===== ANNOTATION CALLOUT LINES & LABELS ===== -->
  <g font-family="'Courier New', monospace">

    <!-- SSSRA MAIN bracket (right side) -->
    <line x1="550" y1="254" x2="622" y2="218" stroke="#00ddff" stroke-width="1.2" stroke-dasharray="5,3" opacity="0.7"/>
    <line x1="550" y1="334" x2="622" y2="334" stroke="#00ddff" stroke-width="1.2" stroke-dasharray="5,3" opacity="0.7"/>
    <line x1="619" y1="218" x2="619" y2="334" stroke="#00ddff" stroke-width="1.8" opacity="0.7"/>
    <line x1="614" y1="218" x2="624" y2="218" stroke="#00ddff" stroke-width="1.8" opacity="0.7"/>
    <line x1="614" y1="334" x2="624" y2="334" stroke="#00ddff" stroke-width="1.8" opacity="0.7"/>
    <text x="628" y="262" font-size="11" font-weight="bold" fill="#00ddff">SSSRA</text>
    <text x="628" y="276" font-size="8" fill="#88ddff">Stacked Solar-Shade</text>
    <text x="628" y="287" font-size="8" fill="#88ddff">Radiator Architecture</text>
    <text x="628" y="302" font-size="7.5" fill="#6abaaa">PV array stacked above</text>
    <text x="628" y="312" font-size="7.5" fill="#6abaaa">radiator on standoffs</text>
    <text x="628" y="322" font-size="7.5" fill="#6abaaa">Eliminates solar parasitic</text>
    <text x="628" y="332" font-size="7.5" fill="#6abaaa">thermal load on radiator</text>

    <!-- Solar Array callout (left) -->
    <line x1="352" y1="265" x2="280" y2="248" stroke="#00ddff" stroke-width="1" stroke-dasharray="4,3" opacity="0.65"/>
    <text x="90" y="235" font-size="8.5" font-weight="bold" fill="#00ddff">① PV SOLAR ARRAY</text>
    <text x="90" y="247" font-size="7.5" fill="#88ddff">Generates electrical power</text>
    <text x="90" y="258" font-size="7.5" fill="#88ddff">+ intercepts solar flux</text>
    <text x="90" y="269" font-size="7.5" fill="#88ddff">before it hits radiator</text>

    <!-- Standoff callout (left) -->
    <line x1="356" y1="291" x2="280" y2="291" stroke="#00ddff" stroke-width="1" stroke-dasharray="4,3" opacity="0.65"/>
    <text x="100" y="284" font-size="8.5" font-weight="bold" fill="#00ddff">② STANDOFFS</text>
    <text x="100" y="295" font-size="7.5" fill="#88ddff">Vacuum gap — thermal</text>
    <text x="100" y="306" font-size="7.5" fill="#88ddff">isolation between layers</text>

    <!-- Radiator callout (left) -->
    <line x1="350" y1="320" x2="280" y2="320" stroke="#00ddff" stroke-width="1" stroke-dasharray="4,3" opacity="0.65"/>
    <text x="65" y="312" font-size="8.5" font-weight="bold" fill="#00ddff">③ FLAT-PLATE RADIATOR</text>
    <text x="65" y="323" font-size="7.5" fill="#88ddff">Rejects heat to deep space</text>
    <text x="65" y="334" font-size="7.5" fill="#88ddff">Shaded = consistent ΔT</text>
    <text x="65" y="345" font-size="7.5" fill="#88ddff">heading-independent</text>

    <!-- Flat roof callout (right) -->
    <line x1="556" y1="345" x2="628" y2="380" stroke="#00ddff" stroke-width="1" stroke-dasharray="4,3" opacity="0.65"/>
    <text x="632" y="376" font-size="8.5" font-weight="bold" fill="#00ddff">FLAT ROOF DECK</text>
    <text x="632" y="387" font-size="7.5" fill="#88ddff">Structural base for SSSRA</text>

    <!-- Cabin callout (right) -->
    <line x1="554" y1="452" x2="628" y2="452" stroke="#00ddff" stroke-width="1" stroke-dasharray="4,3" opacity="0.65"/>
    <text x="632" y="448" font-size="8.5" font-weight="bold" fill="#00ddff">PRESSURIZED CABIN</text>
    <text x="632" y="459" font-size="7.5" fill="#88ddff">4 crew | O₂/N₂ | 72–96 hr</text>

    <!-- Airlock callout (left) -->
    <line x1="348" y1="487" x2="278" y2="487" stroke="#00ddff" stroke-width="1" stroke-dasharray="4,3" opacity="0.65"/>
    <text x="80" y="483" font-size="8.5" font-weight="bold" fill="#00ddff">CREW AIRLOCK</text>
    <text x="80" y="494" font-size="7.5" fill="#88ddff">Pressurized EVA hatch</text>

    <!-- Cryo tank callout (left) -->
    <line x1="350" y1="547" x2="280" y2="547" stroke="#00ddff" stroke-width="1" stroke-dasharray="4,3" opacity="0.65"/>
    <text x="65" y="541" font-size="8.5" font-weight="bold" fill="#00ddff">CRYO PROPELLANT</text>
    <text x="65" y="552" font-size="7.5" fill="#88ddff">LOX/LH₂ | ISRU-compatible</text>

    <!-- Engine callout -->
    <line x1="502" y1="604" x2="580" y2="638" stroke="#00ddff" stroke-width="1" stroke-dasharray="4,3" opacity="0.65"/>
    <text x="584" y="630" font-size="8.5" font-weight="bold" fill="#00ddff">LOX/LH₂ ENGINE</text>
    <text x="584" y="641" font-size="7.5" fill="#88ddff">25–30 kN | ISP 370–450 s</text>

    <!-- Landing leg callout (right) -->
    <line x1="702" y1="621" x2="745" y2="621" stroke="#00ddff" stroke-width="1" stroke-dasharray="4,3" opacity="0.65"/>
    <text x="749" y="617" font-size="8.5" font-weight="bold" fill="#00ddff">LANDING LEG</text>
    <text x="749" y="628" font-size="7.5" fill="#88ddff">4-pt adaptive footpads</text>
  </g>

  <!-- ===== TITLE BLOCK ===== -->
  <rect x="18" y="718" width="964" height="92" rx="3" fill="#06090f" stroke="#00ddff" stroke-width="1.2" opacity="0.93"/>
  <line x1="20" y1="741" x2="980" y2="741" stroke="#00ddff" stroke-width="0.8" opacity="0.45"/>
  <line x1="20" y1="798" x2="980" y2="798" stroke="#00ddff" stroke-width="0.6" opacity="0.3"/>
  <text x="500" y="736" text-anchor="middle" font-size="12.5" font-weight="bold" fill="#00ddff" letter-spacing="3">LUNA–AEGIS SHORT HOPPER — SSSRA INTEGRATION DIAGRAM</text>
  <text x="28" y="753" font-size="8.5" fill="#7aaacc">VEHICLE: Single-stage VTOL Lunar Shuttle | Wet Mass: ~8,000 kg | ΔV: 1,800 m/s (+10% margin)</text>
  <text x="28" y="765" font-size="8.5" fill="#7aaacc">PROPULSION: LOX/LH₂ | Thrust: 25–30 kN | T/W: 1.9–2.3 (lunar liftoff) | ISP: 370–450 s</text>
  <text x="28" y="777" font-size="8.5" fill="#7aaacc">CREW: 4 standard (2–6 modular) | RANGE: 1,500–2,000 km | DURATION: 72–96 hr crewed</text>
  <text x="28" y="789" font-size="8.5" fill="#7aaacc">SSSRA: PV array shades flat-plate radiator from direct solar flux → consistent thermal rejection regardless of heading or sun angle</text>
  <text x="28" y="805" font-size="8" fill="#506888">Aegis Station Infrastructure LLC — aegisstation.com — engage@aegisstation.com</text>
  <text x="978" y="753" text-anchor="end" font-size="8.5" fill="#7aaacc">STATUS: CONCEPT DESIGN</text>
  <text x="978" y="765" text-anchor="end" font-size="8.5" fill="#7aaacc">MODIFICATION: FLAT ROOF + SSSRA</text>
  <text x="978" y="777" text-anchor="end" font-size="8.5" fill="#7aaacc">REV A | 2025</text>
  <text x="978" y="805" text-anchor="end" font-size="8" fill="#506888">DESIGN AUTHORITY: ASI</text>
  <path d="M20,720 L20,728 L28,728" fill="none" stroke="#00ddff" stroke-width="1.5"/>
  <path d="M980,720 L980,728 L972,728" fill="none" stroke="#00ddff" stroke-width="1.5"/>
</svg>
